<?xml version="1.0" encoding="UTF-8" standalone="no"?>
<!-- Created with Inkscape (http://www.inkscape.org/) -->

<svg
   width="169.85219mm"
   height="151.11195mm"
   viewBox="0 0 169.85219 151.11195"
   version="1.1"
   id="svg1"
   xml:space="preserve"
   xmlns="http://www.w3.org/2000/svg"
   xmlns:svg="http://www.w3.org/2000/svg"><defs
     id="defs1" /><g
     id="layer1"
     transform="translate(-20.11438,-77.670438)"><path
       style="fill:#ffffff;fill-opacity:1"
       d="m 34.003657,228.6723 c -5.59639,-0.41832 -9.74269,-2.44589 -12.02632,-5.88096 -2.4815,-3.73271 -2.48405,-8.86036 -0.007,-14.09802 1.03455,-2.18753 70.4793,-122.46061 71.66953,-124.12622 1.88736,-2.641191 4.25191,-4.713122 6.655193,-5.831597 2.99655,-1.394579 6.47565,-1.420919 9.4306,-0.0714 2.48107,1.133101 5.31218,3.706404 7.16538,6.512884 1.15577,1.750291 69.94925,120.916523 70.87777,122.776683 1.44127,2.88741 2.05276,5.08706 2.18162,7.84773 0.30763,6.59079 -3.79077,11.08303 -11.54269,12.6519 -1.37463,0.2782 -6.04693,0.29936 -72.02909,0.32612 -38.807523,0.0157 -71.376263,-0.0325 -72.374983,-0.10712 z M 170.06031,211.43122 C 169.06802,209.50339 105.13263,98.989451 105.0295,99.023828 104.87467,99.075438 40.070717,211.1992 40.061617,211.43122 c -0.003,0.0713 29.26078,0.12971 65.030183,0.12971 35.7694,0 65.00523,-0.0584 64.96851,-0.12971 z M 96.261697,194.26703 v -8.64695 h 8.646953 8.64695 v 8.64695 8.64695 h -8.64695 -8.646953 z m -1.95952,-38.43569 c -1.11843,-11.62799 -2.07513,-21.35581 -2.126,-21.61738 l -0.0925,-0.47558 h 12.897693 c 7.09374,0 12.90134,0.0584 12.9058,0.12971 0.004,0.0713 -0.98531,9.79915 -2.19948,21.61737 l -2.20757,21.48767 h -8.57223 -8.572223 z"
       id="path1" /></g></svg>
