<?xml version="1.0" encoding="UTF-8"?>
<svg id="Livello_1" data-name="Livello 1" xmlns="http://www.w3.org/2000/svg" version="1.1" viewBox="0 0 288 288">
  <defs>
    <style>
      .cls-1 {
        stroke-width: 2px;
      }

      .cls-1, .cls-2, .cls-3 {
        fill: none;
        opacity: .9;
        stroke: #fff;
      }

      .cls-2 {
        stroke-miterlimit: 10;
      }

      .cls-2, .cls-3 {
        stroke-width: 4px;
      }
    </style>
  </defs>
  <line class="cls-1" x1="127.2" y1="25.5" x2="127.8" y2="33"/>
  <line class="cls-1" x1="94.8" y1="31.5" x2="96.7" y2="38.8"/>
  <line class="cls-1" x1="63.9" y1="43" x2="67.1" y2="49.9"/>
  <line class="cls-1" x1="35.4" y1="59.7" x2="39.8" y2="65.9"/>
  <line class="cls-1" x1="63.8" y1="43" x2="67.1" y2="49.9"/>
  <line class="cls-1" x1="160.1" y1="25.2" x2="159.5" y2="32.8"/>
  <line class="cls-1" x1="192.6" y1="30.7" x2="190.7" y2="38"/>
  <line class="cls-1" x1="223.7" y1="41.7" x2="220.5" y2="48.6"/>
  <line class="cls-1" x1="252.4" y1="58" x2="248" y2="64.2"/>
  <path class="cls-3" d="M22.1,69.5c6.2,7.4,12.4,14.7,18.5,22.1"/>
  <path class="cls-3" d="M143.6,24.2v28.9"/>
  <path class="cls-3" d="M265.9,67.6c-6.2,7.4-12.4,14.7-18.5,22.1"/>
  <line class="cls-2" x1="110.8" y1="27.3" x2="113.3" y2="41.6"/>
  <line class="cls-2" x1="78.9" y1="36.1" x2="83.9" y2="49.8"/>
  <line class="cls-2" x1="49.1" y1="50.3" x2="56.4" y2="62.9"/>
  <line class="cls-2" x1="176.6" y1="26.8" x2="174.1" y2="41.1"/>
  <line class="cls-2" x1="208.6" y1="35.1" x2="203.6" y2="48.8"/>
  <line class="cls-2" x1="238.7" y1="48.9" x2="231.4" y2="61.5"/>
</svg>