<?xml version="1.0" encoding="UTF-8"?>
<svg id="Livello_1" data-name="Livello 1" xmlns="http://www.w3.org/2000/svg" version="1.1" viewBox="0 0 288 288">
  <defs>
    <style>
      .cls-1 {
        stroke-miterlimit: 10;
      }

      .cls-1, .cls-2 {
        stroke-width: 4px;
      }

      .cls-1, .cls-2, .cls-3 {
        fill: none;
        stroke: #fff;
      }

      .cls-3 {
        stroke-width: 2px;
      }
    </style>
  </defs>
  <line class="cls-3" x1="132.1" y1="15.7" x2="132.6" y2="20.8"/>
  <line class="cls-3" x1="110.1" y1="19.8" x2="111.3" y2="24.8"/>
  <line class="cls-3" x1="89" y1="27.7" x2="91.1" y2="32.4"/>
  <line class="cls-3" x1="69.5" y1="39.1" x2="72.5" y2="43.3"/>
  <line class="cls-3" x1="88.9" y1="27.7" x2="91.1" y2="32.4"/>
  <line class="cls-3" x1="154.6" y1="15.6" x2="154.1" y2="20.7"/>
  <line class="cls-3" x1="176.8" y1="19.3" x2="175.5" y2="24.3"/>
  <line class="cls-3" x1="198" y1="26.8" x2="195.8" y2="31.5"/>
  <line class="cls-3" x1="217.5" y1="37.9" x2="214.5" y2="42.1"/>
  <path class="cls-2" d="M60.4,45.7c4.3,5.1,8.4,10.1,12.6,15.1"/>
  <path class="cls-2" d="M143.4,14.8v19.7"/>
  <path class="cls-2" d="M226.8,44.5c-4.3,5.1-8.4,10.1-12.6,15.1"/>
  <line class="cls-1" x1="120.9" y1="16.9" x2="122.6" y2="26.7"/>
  <line class="cls-1" x1="99.2" y1="23" x2="102.6" y2="32.3"/>
  <line class="cls-1" x1="78.9" y1="32.7" x2="83.9" y2="41.3"/>
  <line class="cls-1" x1="165.8" y1="16.7" x2="164.1" y2="26.3"/>
  <line class="cls-1" x1="187.7" y1="22.3" x2="184.3" y2="31.6"/>
  <line class="cls-1" x1="208.2" y1="31.7" x2="203.2" y2="40.3"/>
</svg>