<?xml version="1.0" encoding="UTF-8"?>
<svg id="Layer_1" data-name="Layer 1" xmlns="http://www.w3.org/2000/svg" version="1.1" viewBox="0 0 72 72">
  <defs>
    <style>
      .cls-1 {
        fill: #fff;
        stroke-width: 0px;
      }
    </style>
  </defs>
  <path class="cls-1" d="M21.8,38.8c.5.3,1.2.5,1.9.5,1.1,0,1.7-.6,1.7-1.4s-.4-1.2-1.5-1.6c-1.3-.5-2.1-1.2-2.1-2.3s1-2.2,2.6-2.2,1.4.2,1.8.4l-.3.9c-.3,0-.8-.4-1.5-.4-1.1,0-1.5.7-1.5,1.2s.5,1.1,1.6,1.6c1.4.5,2.1,1.2,2.1,2.4s-.9,2.3-2.8,2.3-1.6-.2-2.1-.5l.3-.9h-.2Z"/>
  <path class="cls-1" d="M27.9,32h1v7.2h3.5v.9h-4.5s0-8.1,0-8.1Z"/>
  <path class="cls-1" d="M40,35.9c0,2.8-1.7,4.3-3.8,4.3s-3.6-1.7-3.6-4.1,1.6-4.2,3.8-4.2,3.6,1.7,3.6,4.1h0ZM33.7,36.1c0,1.7.9,3.3,2.6,3.3s2.6-1.5,2.6-3.4-.8-3.3-2.6-3.3-2.6,1.6-2.6,3.4Z"/>
  <path class="cls-1" d="M42.6,40.1l-2.1-8.1h1.1l1,4.1c.2,1,.5,2,.6,2.8h0c0-.8.4-1.8.7-2.8l1.1-4.1h1.1l1,4.1c.2,1,.4,1.9.6,2.8h0c.2-.9.4-1.8.6-2.8l1.1-4.1h1.1l-2.3,8.1h-1.1l-1-4.2c-.3-1-.4-1.8-.5-2.6h0c0,.8-.3,1.6-.6,2.6l-1.2,4.2h-1.2Z"/>
</svg>