<?xml version="1.0" encoding="UTF-8"?>
<svg id="Layer_2" data-name="Layer 2" xmlns="http://www.w3.org/2000/svg" version="1.1" viewBox="0 0 288 288">
  <defs>
    <style>
      .cls-1 {
        isolation: isolate;
        opacity: .2;
        stroke-width: 3px;
      }

      .cls-1, .cls-2, .cls-3, .cls-4 {
        fill: none;
      }

      .cls-1, .cls-2, .cls-4 {
        stroke: #fff;
        stroke-miterlimit: 10;
      }

      .cls-5 {
        fill: #f1f2f2;
      }

      .cls-5, .cls-3 {
        stroke-width: 0px;
      }

      .cls-2, .cls-4 {
        stroke-linecap: round;
      }

      .cls-4 {
        stroke-width: 2px;
      }
    </style>
  </defs>
  <circle class="cls-1" cx="144" cy="144" r="138.6"/>
  <circle class="cls-3" cx="144" cy="144" r="136.8"/>
  <line class="cls-4" x1="144" y1="9.5" x2="144" y2="31.3"/>
  <line class="cls-4" x1="76.7" y1="27.5" x2="87.7" y2="46.4"/>
  <line class="cls-4" x1="27.5" y1="76.7" x2="46.4" y2="87.7"/>
  <line class="cls-4" x1="9.5" y1="144" x2="31.3" y2="144"/>
  <line class="cls-4" x1="27.5" y1="211.3" x2="46.4" y2="200.3"/>
  <line class="cls-4" x1="76.7" y1="260.5" x2="87.7" y2="241.6"/>
  <line class="cls-4" x1="144" y1="278.5" x2="144" y2="256.7"/>
  <line class="cls-4" x1="211.3" y1="260.5" x2="200.3" y2="241.6"/>
  <line class="cls-4" x1="260.5" y1="211.3" x2="241.6" y2="200.3"/>
  <line class="cls-4" x1="278.5" y1="144" x2="256.7" y2="144"/>
  <line class="cls-4" x1="260.5" y1="76.7" x2="241.6" y2="87.7"/>
  <line class="cls-4" x1="211.3" y1="27.5" x2="200.3" y2="46.4"/>
  <line class="cls-2" x1="144" y1="9.5" x2="144" y2="23.5"/>
  <line class="cls-2" x1="120.6" y1="11.5" x2="123.1" y2="25.4"/>
  <line class="cls-2" x1="98" y1="17.6" x2="102.8" y2="30.8"/>
  <line class="cls-2" x1="76.7" y1="27.5" x2="83.8" y2="39.7"/>
  <line class="cls-2" x1="57.5" y1="40.9" x2="66.6" y2="51.7"/>
  <line class="cls-2" x1="40.9" y1="57.5" x2="51.7" y2="66.6"/>
  <line class="cls-2" x1="27.5" y1="76.7" x2="39.7" y2="83.8"/>
  <line class="cls-2" x1="17.6" y1="98" x2="30.8" y2="102.8"/>
  <line class="cls-2" x1="11.5" y1="120.6" x2="25.4" y2="123.1"/>
  <line class="cls-2" x1="9.5" y1="144" x2="23.5" y2="144"/>
  <line class="cls-2" x1="11.5" y1="167.4" x2="25.4" y2="164.9"/>
  <line class="cls-2" x1="17.6" y1="190" x2="30.8" y2="185.2"/>
  <line class="cls-2" x1="27.5" y1="211.3" x2="39.7" y2="204.2"/>
  <line class="cls-2" x1="40.9" y1="230.5" x2="51.7" y2="221.4"/>
  <line class="cls-2" x1="57.5" y1="247.1" x2="66.6" y2="236.3"/>
  <line class="cls-2" x1="76.7" y1="260.5" x2="83.8" y2="248.3"/>
  <line class="cls-2" x1="98" y1="270.4" x2="102.8" y2="257.2"/>
  <line class="cls-2" x1="120.6" y1="276.5" x2="123.1" y2="262.6"/>
  <line class="cls-2" x1="144" y1="278.5" x2="144" y2="264.5"/>
  <line class="cls-2" x1="167.4" y1="276.5" x2="164.9" y2="262.6"/>
  <line class="cls-2" x1="190" y1="270.4" x2="185.2" y2="257.2"/>
  <line class="cls-2" x1="211.3" y1="260.5" x2="204.2" y2="248.3"/>
  <line class="cls-2" x1="230.5" y1="247.1" x2="221.4" y2="236.3"/>
  <line class="cls-2" x1="247.1" y1="230.5" x2="236.3" y2="221.4"/>
  <line class="cls-2" x1="260.5" y1="211.3" x2="248.3" y2="204.2"/>
  <line class="cls-2" x1="270.4" y1="190" x2="257.2" y2="185.2"/>
  <line class="cls-2" x1="276.5" y1="167.4" x2="262.6" y2="164.9"/>
  <line class="cls-2" x1="278.5" y1="144" x2="264.5" y2="144"/>
  <line class="cls-2" x1="276.5" y1="120.6" x2="262.6" y2="123.1"/>
  <line class="cls-2" x1="270.4" y1="98" x2="257.2" y2="102.8"/>
  <line class="cls-2" x1="260.5" y1="76.7" x2="248.3" y2="83.8"/>
  <line class="cls-2" x1="247.1" y1="57.5" x2="236.3" y2="66.6"/>
  <line class="cls-2" x1="230.5" y1="40.9" x2="221.4" y2="51.7"/>
  <line class="cls-2" x1="211.3" y1="27.5" x2="204.2" y2="39.7"/>
  <line class="cls-2" x1="190" y1="17.6" x2="185.2" y2="30.8"/>
  <line class="cls-2" x1="167.4" y1="11.5" x2="164.9" y2="25.4"/>
  <path class="cls-5" d="M58.8,152.3l-21.9,5.8v-3l14.3-3.3c1.5-.4,3-.7,4.5-.9-2.3-.6-3.7-.9-4-1l-14.8-4.2v-3.5l11.1-3.1c2.7-.8,5.3-1.4,7.7-1.7-1.4-.3-3-.6-4.8-1.1l-14.1-3.4v-2.9l21.9,6v2.8l-16.7,4.6c-1.4.4-2.2.6-2.6.7,1,.2,1.9.4,2.6.6l16.7,4.6v3h0Z"/>
  <path class="cls-5" d="M152.5,236.4l-2.6.2c-.1-1.1-.4-1.9-.9-2.6s-1.2-1.2-2.1-1.6-2-.6-3.2-.6-2,.2-2.8.5-1.4.8-1.8,1.3c-.4.6-.6,1.2-.6,1.8s.2,1.2.6,1.7c.4.5,1,.9,1.9,1.2.6.2,1.8.6,3.8,1s3.3.9,4.1,1.3c1,.5,1.8,1.2,2.3,2s.7,1.7.7,2.6-.3,2.1-.9,3-1.5,1.6-2.7,2.1-2.5.7-3.9.7-3-.3-4.2-.8-2.1-1.2-2.8-2.2c-.6-1-1-2.1-1-3.3l2.7-.2c.1,1.3.6,2.3,1.5,3,.8.7,2.1,1,3.7,1s2.9-.3,3.7-.9c.8-.6,1.2-1.4,1.2-2.2s-.3-1.4-.8-1.9-1.9-1-4.2-1.5-3.8-1-4.7-1.4c-1.2-.6-2.1-1.3-2.7-2.2-.6-.9-.9-1.9-.9-3s.3-2.2,1-3.2c.6-1,1.6-1.8,2.8-2.3,1.2-.6,2.6-.8,4.1-.8s3.5.3,4.8.8,2.3,1.4,3,2.5,1.1,2.4,1.2,3.8l-.3.2h0Z"/>
  <path class="cls-5" d="M229.2,136.3h21.9v15.8h-2.6v-12.9h-6.7v12.1h-2.6v-12.1h-7.4v13.4h-2.6v-16.3h0Z"/>
  <path class="cls-5" d="M135.3,58.8v-21.9h3l11.5,17.2v-17.2h2.8v21.9h-3l-11.5-17.2v17.2s-2.8,0-2.8,0Z"/>
  <polygon class="cls-5" points="138.5 280.8 144 269.8 149.5 280.8 138.5 280.8"/>
  <polygon class="cls-5" points="280.8 149.5 269.8 144 280.8 138.5 280.8 149.5"/>
  <polygon class="cls-5" points="149.5 7.2 144 18.2 138.5 7.2 149.5 7.2"/>
  <polygon class="cls-5" points="7.2 138.5 18.2 144 7.2 149.5 7.2 138.5"/>
</svg>