<?xml version="1.0" encoding="UTF-8"?>
<svg id="Livello_2" data-name="Livello 2" xmlns="http://www.w3.org/2000/svg" xmlns:xlink="http://www.w3.org/1999/xlink" viewBox="0 0 51.02 55.54">
  <defs>
    <style>
      .cls-1 {
        opacity: .85;
      }

      .cls-2 {
        fill: url(#Sfumatura_senza_nome_11);
      }

      .cls-3 {
        fill: #fff;
        stroke-width: 0px;
      }
    </style>
    <linearGradient id="Sfumatura_senza_nome_11" data-name="Sfumatura senza nome 11" x1="1.8" y1="27.77" x2="49.22" y2="27.77" gradientUnits="userSpaceOnUse">
      <stop offset=".5" stop-color="#e63343"/>
      <stop offset=".5" stop-color="#ce303c"/>
    </linearGradient>
  </defs>
  <g id="Livello_7" data-name="Livello 7">
    <g>
      <g class="cls-1">
        <path class="cls-3" d="M50.64,49.87L28.29,1.78c-.51-1.1-1.58-1.78-2.78-1.78s-2.28.68-2.79,1.78L.37,49.87c-.57,1.24-.48,2.66.25,3.81.73,1.15,2.02,1.86,3.36,1.86.6,0,1.19-.14,1.75-.41l19.42-9.46c.11-.05.23-.08.36-.08.12,0,.24.03.35.08l19.43,9.46c.56.27,1.15.41,1.75.41,1.34,0,2.63-.71,3.36-1.86.73-1.14.82-2.57.24-3.81ZM47.04,53.74c-.31,0-.64-.07-.96-.23l-19.43-9.45c-.36-.18-.75-.27-1.14-.27s-.79.09-1.15.27l-19.42,9.45c-.32.16-.65.23-.96.23-1.48,0-2.69-1.57-1.97-3.11L24.35,2.54c.23-.5.69-.74,1.16-.74s.92.24,1.15.74l22.35,48.09c.72,1.54-.49,3.11-1.97,3.11Z"/>
      </g>
      <path class="cls-2" d="M46.08,53.51l-19.43-9.46c-.72-.35-1.57-.35-2.29,0l-19.42,9.45c-1.85.9-3.8-1.02-2.93-2.88L24.35,2.54c.46-.98,1.85-.98,2.31,0l22.35,48.09c.87,1.86-1.09,3.78-2.93,2.88Z"/>
    </g>
  </g>
</svg>