<?xml version="1.0" encoding="UTF-8"?>
<svg id="Livello_2" data-name="Livello 2" xmlns="http://www.w3.org/2000/svg" viewBox="0 0 50.56 63.31">
  <defs>
    <style>
      .cls-1 {
        opacity: .85;
      }

      .cls-2 {
        fill: #ce303c;
      }

      .cls-2, .cls-3, .cls-4 {
        stroke-width: 0px;
      }

      .cls-3 {
        fill: #e63343;
      }

      .cls-4 {
        fill: #fff;
      }
    </style>
  </defs>
  <g id="Livello_7" data-name="Livello 7">
    <g>
      <g>
        <path class="cls-2" d="M25.28,1.8c0,15.66,0,31.32,0,46.98-10.25,5.11-14.56,7.65-23.48,12.73C8.09,40.13,13.96,21.31,25.28,1.8Z"/>
        <path class="cls-3" d="M48.76,61.51c-8.92-5.08-13.23-7.62-23.48-12.73,0-15.66,0-31.32,0-46.98,11.27,19.41,17.23,38.3,23.48,59.7Z"/>
      </g>
      <g class="cls-1">
        <path class="cls-4" d="M25.28,1.8c11.26,19.42,17.23,38.31,23.48,59.71-8.92-5.08-13.23-7.62-23.48-12.73-10.26,5.11-14.56,7.65-23.48,12.73C8.09,40.13,13.96,21.31,25.28,1.8h0ZM25.28,0c-.64,0-1.24.34-1.56.9C12.51,20.22,6.61,38.77.07,61c-.21.7.03,1.46.61,1.92.33.26.72.39,1.12.39.31,0,.61-.08.89-.24l2.64-1.51c7.02-4.01,11.34-6.47,19.95-10.78,8.65,4.33,13,6.81,20.06,10.84l2.53,1.44c.28.16.58.24.89.24.4,0,.79-.13,1.12-.39.58-.45.82-1.21.61-1.92C44.27,39.71,38.2,20.49,26.84.9,26.52.34,25.92,0,25.28,0h0Z"/>
      </g>
    </g>
  </g>
</svg>