<?xml version="1.0" encoding="UTF-8"?>
<svg id="Layer_1" data-name="Layer 1" xmlns="http://www.w3.org/2000/svg" version="1.1" viewBox="0 0 72 72">
  <defs>
    <style>
      .cls-1 {
        opacity: .8;
      }

      .cls-2 {
        fill: #e63343;
      }

      .cls-2, .cls-3 {
        stroke-width: 0px;
      }

      .cls-3 {
        fill: #fff;
      }
    </style>
  </defs>
  <g>
    <g class="cls-1">
      <path class="cls-3" d="M29,1.6c14.8,0,22.9,12,22.2,24.3-.9,15.8-20.5,44.6-22.2,44.6S7.9,40.1,6.8,25.8C5.9,13.6,14.2,1.6,29,1.6M29,.2c-7,0-13,2.5-17.4,7.2-4.5,4.9-6.8,11.6-6.2,18.5.6,8.4,7.2,21.3,11.1,28.2,2.4,4.4,5,8.6,7.4,12.1,3.8,5.6,4.4,5.6,5.2,5.6s1.4,0,5.2-5.3c2.4-3.3,5-7.5,7.4-11.7,3.9-6.8,10.4-19.6,11-28.8.4-7.1-2-13.9-6.5-18.7C41.8,2.6,35.9.2,29,.2h0Z"/>
    </g>
    <path class="cls-2" d="M51.2,25.8c-.9,15.8-20.5,44.6-22.2,44.6S7.9,40.1,6.8,25.8,14.2,1.6,29,1.6s22.9,12,22.2,24.3Z"/>
  </g>
  <polygon class="cls-3" points="53.4 0 47.4 0 47.4 13.9 33.6 13.9 33.6 19.7 47.4 19.7 47.4 33.7 53.4 33.7 53.4 19.7 67.3 19.7 67.3 13.9 53.4 13.9 53.4 0 53.4 0"/>
</svg>