<?xml version="1.0" encoding="UTF-8"?>
<svg id="Layer_1" data-name="Layer 1" xmlns="http://www.w3.org/2000/svg" version="1.1" viewBox="0 0 72 72">
  <defs>
    <style>
      .cls-1 {
        opacity: .8;
      }

      .cls-2 {
        stroke-width: 0px;
      }

      .cls-2, .cls-3 {
        fill: #fff;
      }

      .cls-3 {
        stroke: #fff;
        stroke-miterlimit: 10;
      }
    </style>
  </defs>
  <g>
    <g class="cls-1">
      <g>
        <path class="cls-2" d="M29.1,71.6c-1,0-1.7-.3-5.4-5.7-2.5-3.7-5-7.8-7.3-11.9-3.1-5.5-10.3-19.1-11-27.9-.6-6.8,1.7-13.6,6.2-18.5C16,2.9,22,.4,29,.4s12.8,2.5,17.2,7.1c.5.5.8.9,1.2,1.4,3.8,4.7,5.7,10.9,5.3,17.3-.2,2.2-.7,4.8-1.5,7.7-2.4,8.1-6.9,16.5-9.4,20.8-2.6,4.6-5.1,8.6-7.3,11.6-3.7,5.1-4.4,5.4-5.4,5.4ZM29,2.5c-.4,0-.9,0-1.3,0-.4,0-.8,0-1.2,0h-.3C13.5,4.1,7.6,14.7,7.5,23.9v.3c0,.3,0,.6,0,.9,0,.3,0,.6,0,.8.2,3.1,1.3,7,3.3,11.8,5.7,14.3,16.6,30.9,18.2,31.8,1.9-1,15.4-20.7,20-35.9.9-2.9,1.4-5.4,1.5-7.6.3-5.2-1-10.2-3.7-14.3-3.9-6-10.2-9.2-17.8-9.2Z"/>
        <path class="cls-2" d="M29,.8c6.8,0,12.6,2.4,16.9,7,.4.4.8.9,1.2,1.4,3.7,4.6,5.6,10.7,5.2,17-.2,2.3-.7,4.9-1.5,7.6-2.2,7.6-6.5,15.8-9.3,20.8-2.4,4.1-4.9,8.3-7.3,11.5-3.7,5.2-4.3,5.2-5.1,5.2s-1.4,0-5.1-5.5c-2.4-3.4-4.9-7.6-7.3-11.9-3.8-6.8-10.3-19.5-10.9-27.8-.6-6.8,1.7-13.4,6.1-18.2C16.2,3.2,22.1.8,29,.8M29,70c1.4,0,15.6-20.5,20.3-36.2.8-2.8,1.4-5.4,1.5-7.7h0c.3-5.3-1-10.4-3.7-14.5-3.6-5.6-9.8-9.4-18.1-9.4s-.9,0-1.3,0c-.5,0-1,0-1.5.1C14.2,3.6,7.2,13.4,7.1,23.9c0,.4,0,.8,0,1.2,0,.3,0,.6,0,.9.3,3.3,1.5,7.5,3.3,11.9,5.8,14.5,17.3,32.1,18.6,32.1M29,0C21.9,0,15.8,2.5,11.3,7.3c-4.6,5-6.9,11.9-6.3,18.8.6,8.8,7.9,22.6,11,28.1,2.3,4.1,4.8,8.3,7.3,12,3.8,5.6,4.5,5.8,5.7,5.8s1.9-.2,5.7-5.5c2.2-3,4.7-7,7.3-11.6,2.5-4.3,7-12.8,9.4-20.9.9-2.9,1.4-5.5,1.5-7.7.4-6.5-1.5-12.7-5.4-17.5-.4-.5-.8-.9-1.2-1.4C42,2.5,36,0,29,0h0ZM29,69.1c-2.2-1.9-12.4-17.8-17.9-31.5-1.9-4.8-3-8.7-3.2-11.7,0-.3,0-.6,0-.9,0-.3,0-.6,0-.8v-.3c.1-9.1,5.9-19.5,18.4-20.9h.3c.4,0,.7-.1,1.1-.1.4,0,.9,0,1.3,0,7.4,0,13.7,3.2,17.5,9.1,2.6,4,3.9,8.9,3.6,14h0c-.1,2.2-.6,4.8-1.5,7.6-4.4,14.5-17.1,33.5-19.6,35.6h0Z"/>
      </g>
    </g>
    <path class="cls-3" d="M7.1,23.9c0,.4,0,.8,0,1.2,0-.4,0-.8,0-1.2Z"/>
    <path class="cls-3" d="M27.7,2.2c-.5,0-1,0-1.5.1.5,0,1,0,1.5-.1Z"/>
  </g>
  <polygon class="cls-2" points="58.8 14.1 58.8 19.9 44.9 19.9 44.9 33.9 38.9 33.9 38.9 19.9 25.1 19.9 25.1 14.1 38.9 14.1 38.9 .2 44.9 .2 44.9 14.1 58.8 14.1"/>
</svg>