<?xml version="1.0" encoding="UTF-8"?>
<svg id="Layer_1" data-name="Layer 1" xmlns="http://www.w3.org/2000/svg" version="1.1" viewBox="0 0 72 72">
  <defs>
    <style>
      .cls-1 {
        fill: none;
        stroke: #fff;
        stroke-linecap: round;
        stroke-linejoin: round;
        stroke-width: 4px;
      }
    </style>
  </defs>
  <path class="cls-1" d="M64.3,32.2l-7.4,24c-.2.8-.9,1.3-1.7,1.3H10.3s-.8,0-.8,0c.4-.1.9-.3,1.1-.6l7.6-25.5.2-.4c.2-.5.7-.8,1.3-.9h42.8c1.2,0,2.2,1.1,1.8,2.2h0Z"/>
  <path class="cls-1" d="M53.9,22.5v7.4H19.8c-.7,0-1.1.4-1.4,1h0l-7.7,25.8c-.1.3-.4.6-.7.7h-.4c-1,0-1.8-.8-1.8-1.8V16.3c0-1,.8-1.8,1.8-1.8h17.6c.6,0,1.2.2,1.7.7l4.7,4.7c.4.4,1,.7,1.7.7h16.9c1,0,1.7.9,1.7,1.9h0Z"/>
  <path class="cls-1" d="M19.8,29.9c-.6,0-1.1.5-1.4,1,.2-.5.8-.9,1.4-1Z"/>
</svg>