<?xml version="1.0" encoding="UTF-8"?>
<svg id="Layer_1" data-name="Layer 1" xmlns="http://www.w3.org/2000/svg" version="1.1" viewBox="0 0 72 72">
  <defs>
    <style>
      .cls-1 {
        fill: none;
        stroke: #fff;
        stroke-miterlimit: 10;
        stroke-width: 4px;
      }
    </style>
  </defs>
  <path class="cls-1" d="M64.3,32.2l-7.4,24c-.2.8-.9,1.3-1.7,1.3H10s0,0-.1,0c.3-.1.5-.4.7-.7l7.7-25.5c0-.1,0-.2,0-.3.2-.5.8-.9,1.4-1,0,0,.2,0,.3,0h42.5c1.2,0,2.1,1.2,1.7,2.3Z"/>
  <path class="cls-1" d="M53.9,22.5v7.4H20.1c0,0-.2,0-.3,0-.7,0-1.2.4-1.4,1,0,0,0,.2,0,.3l-7.7,25.5c-.1.3-.4.6-.7.7-.1,0-.3,0-.4,0-1,0-1.8-.8-1.8-1.8V16.3c0-1,.8-1.8,1.8-1.8h17.6c.6,0,1.2.2,1.7.7l4.7,4.7c.4.4,1,.7,1.7.7h16.9c1,0,1.8.8,1.8,1.8Z"/>
  <path class="cls-1" d="M19.8,29.9c-.6,0-1.1.5-1.4,1,.2-.5.8-.9,1.4-1Z"/>
</svg>