<?xml version="1.0" encoding="UTF-8"?>
<svg id="Layer_1" data-name="Layer 1" xmlns="http://www.w3.org/2000/svg" version="1.1" viewBox="0 0 72 72">
  <defs>
    <style>
      .cls-1 {
        fill: #c8283e;
      }

      .cls-1, .cls-2, .cls-3 {
        stroke-miterlimit: 10;
      }

      .cls-1, .cls-3 {
        stroke: #000;
        stroke-width: .2px;
      }

      .cls-2 {
        fill: none;
        stroke: #fff;
        stroke-width: 6px;
      }

      .cls-4 {
        fill: #fff;
        stroke-width: 0px;
      }

      .cls-3 {
        fill: #e63343;
      }
    </style>
  </defs>
  <g>
    <line class="cls-2" x1="55" y1="27.3" x2="63.9" y2="18.3"/>
    <polygon class="cls-4" points="66.9 23.8 70 12.3 58.4 15.4 66.9 23.8"/>
  </g>
  <g>
    <path class="cls-3" d="M57.4,35.7l-7.4,24c-.2.8-.9,1.3-1.7,1.3H2.8c0,0-.2,0-.1-.2l8.7-26.1c.2-.8.9-1.3,1.8-1.3h42.5c1.2,0,2.1,1.2,1.7,2.3h0Z"/>
    <path class="cls-1" d="M47,26v7.4H13.2c-.8,0-1.6.5-1.8,1.3l-7.7,25.5c-.2.5-.6.8-1.1.8h0c-1,0-1.8-.8-1.8-1.8V19.9c0-1,.8-1.8,1.8-1.8h17.6c.6,0,1.2.2,1.7.7l4.7,4.7c.4.4,1,.7,1.7.7h16.9c1,0,1.8.8,1.8,1.8h0Z"/>
  </g>
</svg>