<?xml version="1.0" encoding="UTF-8" standalone="no"?>
<svg
   id="Layer_1"
   data-name="Layer 1"
   version="1.1"
   viewBox="0 0 72 72"
   sodipodi:docname="MailIcon.svg"
   inkscape:version="1.3.2 (091e20e, 2023-11-25, custom)"
   xmlns:inkscape="http://www.inkscape.org/namespaces/inkscape"
   xmlns:sodipodi="http://sodipodi.sourceforge.net/DTD/sodipodi-0.dtd"
   xmlns="http://www.w3.org/2000/svg"
   xmlns:svg="http://www.w3.org/2000/svg">
  <sodipodi:namedview
     id="namedview3"
     pagecolor="#505050"
     bordercolor="#eeeeee"
     borderopacity="1"
     inkscape:showpageshadow="0"
     inkscape:pageopacity="0"
     inkscape:pagecheckerboard="0"
     inkscape:deskcolor="#d1d1d1"
     inkscape:zoom="11.402778"
     inkscape:cx="35.956151"
     inkscape:cy="36"
     inkscape:window-width="1920"
     inkscape:window-height="1017"
     inkscape:window-x="3832"
     inkscape:window-y="547"
     inkscape:window-maximized="1"
     inkscape:current-layer="Layer_1" />
  <defs
     id="defs1">
    <style
       id="style1">
      .cls-1 {
        stroke-width: 2.8px;
      }

      .cls-1, .cls-2 {
        fill: none;
      }

      .cls-1, .cls-2, .cls-3 {
        stroke: #fff;
        stroke-linecap: round;
        stroke-linejoin: round;
      }

      .cls-2, .cls-3 {
        stroke-width: 4px;
      }

      .cls-3 {
        fill: #fff;
      }
    </style>
  </defs>
  <line
     class="cls-2"
     x1="59.7"
     y1="22.6"
     x2="59.7"
     y2="22.6"
     id="line1" />
  <path
     class="cls-1"
     d="M61.2,22.7v26.4c0,1.1-.8,2-1.7,2.2H12.6c-1-.2-1.8-1.1-1.8-2.2v-26.3c0-.6.3-1.2.7-1.6l18.3,17.7h.1l3.9,3.8c0,0,.3.2.4.3h0c.5.4,1.2.6,1.9.6h.4c.2,0,.3,0,.4-.2h0c.4-.2.8-.4,1.2-.7l3.9-3.8,18.5-17.8h0c.3.4.6.9.6,1.5h0Z"
     id="path1" />
  <path
     class="cls-1"
     d="M60.6,21.2l-18.5,17.8-3.9,3.8c-.4.4-.7.6-1.2.7h0c0,0-.3,0-.4.2h-.4c-.7,0-1.3-.2-1.9-.6h0l-.2-.2-3.9-3.8L11.5,21.2c.4-.3.9-.6,1.4-.6h46.3c.5,0,1,.2,1.4.6Z"
     id="path3" />
</svg>
