<?xml version="1.0" encoding="UTF-8"?>
<svg id="Layer_1" data-name="Layer 1" xmlns="http://www.w3.org/2000/svg" version="1.1" viewBox="0 0 72 72">
  <defs>
    <style>
      .cls-1 {
        fill: #fff;
      }

      .cls-1, .cls-2 {
        stroke: #fff;
        stroke-linecap: round;
        stroke-linejoin: round;
        stroke-width: 4px;
      }

      .cls-2 {
        fill: none;
      }
    </style>
  </defs>
  <line class="cls-2" x1="59.7" y1="22.6" x2="59.7" y2="22.6"/>
  <path class="cls-1" d="M61.2,22.7v26.4c0,1.1-.8,2-1.7,2.2H12.6c-1-.2-1.8-1.1-1.8-2.2v-26.3c0-.6.3-1.2.7-1.6l18.3,17.7h.1l3.9,3.8c.1.1.3.2.4.3,0,0,0,0,.1,0,.5.4,1.2.6,1.9.6h.4c.2,0,.3-.1.4-.2,0,0,0,0,0,0,.4-.2.8-.4,1.2-.7l3.9-3.8,18.5-17.8s0,0,0,0c.3.4.6.9.6,1.5Z"/>
  <path class="cls-1" d="M36.6,43.6c.2,0,.3,0,.4,0-.1,0-.3.1-.4.2h-.4c-.7,0-1.3-.2-1.9-.6.6.3,1.2.5,1.9.5h.4Z"/>
  <line class="cls-1" x1="59.3" y1="51.3" x2="59.5" y2="51.3"/>
  <path class="cls-1" d="M60.6,21.2l-18.5,17.8-3.9,3.8c-.4.4-.7.6-1.2.7,0,0,0,0,0,0-.1,0-.3.1-.4.2h-.4c-.7,0-1.3-.2-1.9-.6,0,0,0,0-.1,0,0,0-.1-.1-.2-.2l-3.9-3.8L11.5,21.2c.4-.3.9-.6,1.4-.6h46.3c.5,0,1,.2,1.4.6Z"/>
</svg>