<?xml version="1.0" encoding="UTF-8"?>
<svg id="Layer_1" data-name="Layer 1" xmlns="http://www.w3.org/2000/svg" version="1.1" viewBox="0 0 72 72">
  <defs>
    <style>
      .cls-1, .cls-2 {
        fill: #fff;
      }

      .cls-1, .cls-3 {
        stroke: #73959c;
        stroke-linecap: round;
        stroke-linejoin: round;
        stroke-width: .2px;
      }

      .cls-4 {
        stroke: #fff;
        stroke-miterlimit: 10;
        stroke-width: 6px;
      }

      .cls-4, .cls-3 {
        fill: none;
      }

      .cls-5 {
        opacity: 1;
      }

      .cls-2 {
        stroke-width: 0px;
      }
    </style>
  </defs>
  <g class="cls-5">
    <line class="cls-4" x1="55" y1="27.3" x2="63.9" y2="18.3"/>
    <polygon class="cls-2" points="66.9 23.8 70 12.3 58.4 15.4 66.9 23.8"/>
  </g>
  <line class="cls-3" x1="51.5" y1="31.6" x2="51.5" y2="31.6"/>
  <path class="cls-1" d="M21.7,47.9l-17.3,12.4c-1-.2-1.8-1.1-1.8-2.2v-26.3c0-.6.2-1.2.6-1.6l18.4,17.7Z"/>
  <path class="cls-1" d="M51.3,60.3c-.1,0-.2,0-.3,0H4.7c-.1,0-.2,0-.3,0l17.3-12.4,3.9,3.8c.7.6,1.5.9,2.4.9,0,0,.2,0,.2,0h0c0,0,.1,0,.2,0,.7,0,1.3-.4,1.8-.9l3.8-3.7,17.2,12.4Z"/>
  <path class="cls-1" d="M53,31.8v26.3c0,1.1-.8,2-1.7,2.2l-17.2-12.4h0c0,0,18.3-17.7,18.3-17.7.3.4.6.9.6,1.5Z"/>
  <path class="cls-1" d="M52.4,30.2l-18.5,17.8-3.9,3.8c-.5.5-1,.7-1.6.9,0,0-.1,0-.2,0h0c0,0-.2,0-.2,0-.8,0-1.6-.3-2.2-.9l-3.9-3.8L3.3,30.2c.4-.3.9-.6,1.4-.6h46.3c.6,0,1.1.3,1.5.7Z"/>
</svg>