<?xml version="1.0" encoding="UTF-8"?>
<svg id="Livello_2" data-name="Livello 2" xmlns="http://www.w3.org/2000/svg" viewBox="0 0 103.08 51.11">
  <defs>
    <style>
      .cls-1 {
        fill: #200;
      }

      .cls-1, .cls-2 {
        stroke-width: 0px;
      }

      .cls-3 {
        opacity: 0;
      }

      .cls-2 {
        fill: #fff;
      }
    </style>
  </defs>
  <g id="Livello_8" data-name="Livello 8">
    <g id="Livello_10" data-name="Livello 10">
      <g id="MovimentoY">
        <g>
          <g>
            <g>
              <path class="cls-1" d="M41.36,42.19h.09s-.09,0-.09,0ZM54.13,42.09v.09h0v-.09ZM41.48,28.38v.09h0v-.09ZM51.55,27.5v.09h0v-.09ZM15.04,22.62h.09v.05h-.09v-.05ZM9.76,22.25l-.02-.02.04-.02v.05s.02.02.02.02l-.04.02v-.05ZM68.84,20.6l.02-.08h.03s-.02.09-.02.09h-.03ZM69.05,20.42h.09v.03h-.09v-.03ZM30.52,9.42l.06-.06h0s-.06.07-.06.07h0ZM23.69,6.55h0s.06.05.06.05h0s-.06-.05-.06-.05ZM63.67,4.55h0s-.01-.03-.01-.04c0,0,0-.01,0-.02,0-.02.02-.03.04-.03h0s.04.03.04.05c0,.02-.01.03-.03.04,0,0-.01,0-.02,0-.01,0-.02,0-.03-.01ZM59.61,4.29s-.02-.02-.02-.05c0,0,0,0,0-.01,0-.02,0-.03,0-.03h0s.02-.04.04-.04.04.02.04.04v.06s-.01.03-.03.04c0,0-.01,0-.02,0-.01,0-.02,0-.03-.01Z"/>
              <g>
                <path class="cls-2" d="M28.88,44.86h0c-.44,0-1.08-.05-1.55-.5-.31-.29-.48-.7-.48-1.15-.06-.72.08-1.28.44-1.68.2-.22.57-.5,1.19-.52h.3s.52,0,.52,0h0c.41,0,.92.04,1.33.36l9.9-.05.05-12.01-7.64-.05c-.38.24-.84.27-1.18.27-.15,0-.3,0-.46-.02h-.14c-.5-.01-.82-.24-1-.43-.45-.49-.41-1.19-.39-1.49,0-.32.14-.65.38-.9.55-.54,1.39-.49,1.89-.47h.12c.29.01.55.09.77.24l7.67.08v-2.83s-2.5.02-2.5.02c-.52,0-.94-.14-1.26-.42l-.31-.26c-.7-.59-1.41-1.19-1.7-1.52-.07-.08-.22-.24-.41-.44-1.73-1.85-2.08-2.3-2.18-2.66-.21.04-.56.1-.95.19-.44.1-.96.1-1.45,0-.12-.02-.25-.05-.43-.09v-.13s-.06.04-.1.06v.05s-.06-.01-.06-.01c-2.09,1.22-7.2,4.17-9.88,5.72l-.21.12c1.38.67,2.19,1.16,2.48,1.37.4.29,4.19,3.78,4.96,4.68.35.4.75.77,1.19,1.1.27.2.4.45.4.75,0,.02,0,.18-.08.38-.09.2-.28.34-.35.39-.33.19-.85.34-1.65.47-1.14.19-2.12-.32-2.81-.68-.19-.1-.34-.18-.48-.24-.65-.26-4.7-3-6.94-4.59-1.25,1.22-3.28,1.36-4.14,1.36-.35,0-.67-.02-.96-.06-1.37-.17-2.22-.66-2.42-1.37-.07-.17-.16-.56-.62-3.71l-.05-.33c-.05-.17-.06-.4,0-.65-.56.12-1.12.23-1.77.11-.82-.21-1.77-.66-2.92-2.44C2.37,19.91.13,16.2.02,15.75c-.07-.32.03-.65.25-.89.32-.35.94-.57,1.66-.57.15,0,.3,0,.49.03,1.15.23,1.9.73,2.63,1.21.29.19.58.39.86.53.21.1,4.72,2.79,5.38,3.89.06.05.38.37.88.76,1.44-.09,2.62.2,3.25.76.17.15.3.32.39.5l10.43-6.04c-.03-.39-.07-.96-.12-1.72-.01-.08-.01-.17-.01-.28.06-.81.7-1.14,1.23-1.29,0-.02,0-.04,0-.07l-.07-1.9c0-.06,0-.12,0-.17-.19-.17-.31-.32-.39-.45h0s-.06-.11-.12-.22c-.28-.2-1.01-.72-1.79-1.27l-1.5-1.07c-.2.02-.47.03-.75.03-.6,0-1.09-.06-1.44-.18-.68-.23-.88-.68-.93-.86-.02-.05-.06-.16-.15-1.91-1.38.17-2.92.42-4.67.71l-.27.04c-.99.16-2.1.35-3.33.54-3.42.54-4.75.44-4.9.43-.58-.07-.82-.37-.92-.62-.03-.11-.08-.3-.05-.5.04-.27.17-.42.23-.47.13-.18.42-.31.73-.31.06,0,.11,0,.19.01.56,0,5.2-.77,5.57-.86.14-.04,6.49-.93,7.4-1.03,1.33-.35,2.18-.48,3.7-.63.55-.05,1.38-.28,1.93-.42.31-.08.51-.14.61-.15.44-.08,6.97-.91,7.01-.91.1,0,.54-.07,1.06-.13l.3-.04c.76-.1,1.55-.21,1.85-.23.51,0,1.49,0,1.62.88.12.93-.87,1.2-1.82,1.47-.19.06-6.33,1.77-7.15,2-.82.22-1.97.37-2.92.02-.13-.05-.27-.09-.39-.13.03.46.05.99.07,1.34l1.03.64c.81.51,1.93,1.21,2.03,1.26l.08.02c.34.12.6.21.79.32.09.06.24.15.82.63.91-.12,1.88-.1,2.68.03-.02,0,1.72.01,3.99.04,4.3.05,10.5.12,10.64.12.06,0,.13-.02.21-.04.29-.06.55-.08.86-.11-.04-.73.01-1.58.39-1.95l.15-.1.39-.17h.92c.23-.11.69-.34,1.03-.41.28-.09,1.88-.11,1.9-.11.2,0,.35,0,.44.03.39.08.95.23,1.4.5.14.12.23.22.36.44l2.45-.96c.01-.18.03-.37.04-.53l.03-.42s0-.02,0-.02c-.04.01-.08.02-.12.03-.43.13-.88.26-1.3.26-.01,0-.13,0-.19,0-.92,0-2.06-.45-2.9-.78l-.38-.15c-.55-.24-1.38-.55-2.26-.88-1.35-.5-2.74-1.01-3.48-1.43l-.31-.3c-.18-.29-.19-.65-.02-.95.31-.55,1.04-.59,1.18-.59.42,0,1.05.1,1.93.31.79.19,3.12.62,4.82.93,1.71.32,2.34.43,2.51.48l.22.06c.4.1.99.25,1.47.48.28.12,2.35.54,3.02.68l.1.02c.43.09.72.15.78.17l.2.09c.44.25,3.44.84,4.56,1.07,1.01.2,1.63.33,1.91.4.33.07,1.07.26,1.93.48,1.43.37,4.1,1.04,4.72,1.07h0c.52,0,.78.26.9.49.03.05.1.21.11.4.01.22-.08.41-.12.48-.32.5-.94.55-1.19.55h-.24c-.33-.04-.94-.09-1.65-.24-1.99-.37-4.19-.89-6.31-1.39-1.39-.33-2.8-.66-4.13-.95-.01.21-.02.41-.03.55-.01.67-.06,1.31-.49,1.7-.35.35-1.13.54-2.29.54-.37,0-.68-.02-.93-.07-.73.3-2.35.93-3.33,1.31.17.51.19.86.09,1.17l-.06.12-.2.27c-.17.15-.33.27-.5.36l-.02.16c-.29,1-1.47,1-1.98,1h-.22s-1.4,1.49-1.4,1.49l15.16,5.25c.02-.16.05-.29.06-.37.13-.98,1.32-1.57,3.14-1.5.45-.37.54-.51.87-1.04l.08-.13c.62-.99,3.58-3.21,3.61-3.23.26-.15.53-.36.81-.58.67-.53,1.4-1.1,2.34-1.32.17-.03.33-.05.5-.05.35,0,1.11.08,1.5.41,0,0,.13.07.23.25.1.16.11.36.11.47,0,.11,0,.39-1.53,4.4-.8,2.05-1.96,2.96-2.78,3.13-.47.06-.73.02-1.07-.03.03.13.03.25.03.37v.08c0,.09-.04.33-.4,2.59q-.21,1.37-.25,1.45l-.11.29c-.49.7-1.52,1.07-2.98,1.07-1.09-.01-2.41-.21-3.31-.74-1.79,1.65-4.84,3.91-5.48,4.34-.72.48-1.44.55-1.82.55-.31,0-.59-.05-.83-.13-.08-.02-.34-.05-.43-.06-.32-.03-1.17-.11-1.17-.96l.03-.16.16-.38c.06-.08.23-.31.45-.62,2.41-3.36,3.69-4.98,4.42-5.55l-12.78-4.49s-.04.02-.07.03c-.14.39-.38.96-.74,1.79-.27.63-.64,1.49-.7,1.71-.1.34-.33,1.53-.33,1.73.01.35-.16.67-.47.87-.33.22-.9.31-1.86.31-.76,0-.94-.06-1.05-.12,0,0-.03-.01-.09-.04-.07-.04-.13-.06-.28-.07-.04,0-.2,0-.42,0-.32,0-1.38,0-2.01,0l-.02,2.88,7.43.07c.43-.3,1-.3,1.23-.3.16,0,.31,0,.44.02h.13c.48.01.8.24.97.42.45.48.42,1.15.41,1.51,0,.36-.14.71-.4.97-.42.4-1,.45-1.39.45-.13,0-.25,0-.39-.01h-.21s0,0,0,0c-.31,0-.6-.11-.83-.31l-7.41-.05-.08,11.97,10.14-.05c.4-.28.89-.31,1.25-.31.12,0,.24,0,.37,0h.26s.08,0,.15,0c.51,0,.9.18,1.18.49.51.56.46,1.39.44,1.66,0,.55-.26.91-.47,1.11-.45.43-1.08.48-1.51.48-.12,0-.25,0-.38,0-.1,0-.18,0-.26,0h-.12c-.38,0-.71-.11-.97-.33l-23.03.13c-.25.25-.61.38-1.01.38-.13,0-.24,0-.43.01h-.36ZM28.49,42.01c-.19,0-.36.07-.46.19-.16.18-.23.51-.19.97,0,.21.06.36.17.46.21.2.58.22.85.22h.34c.19-.01.29-.01.43-.02.18,0,.29-.04.37-.13l.15-.21.29-.05,23.71-.13.15.19s.12.15.35.15h.12c.12-.01.2,0,.3,0,.13,0,.24,0,.35,0,.28,0,.63-.02.82-.2.1-.1.16-.24.16-.43.01-.19.04-.7-.18-.95-.09-.1-.23-.16-.41-.16-.13.01-.26,0-.42,0-.17,0-.28-.01-.39-.01-.24,0-.57.02-.73.17l-.14.14-11.53.06.09-13.98,8.87.06.15.2s.07.1.23.1h.18c.17.02.28.02.4.02.13,0,.53,0,.7-.17.06-.06.1-.15.1-.26.01-.27.03-.64-.13-.81-.06-.07-.16-.1-.28-.1h-.13c-.13-.01-.26-.02-.4-.02-.45,0-.62.08-.69.15l-.15.16-8.83-.09.03-4.87h.5s2.04-.01,2.51-.01c.25,0,.41,0,.47,0,.34.02.53.1.68.17l.09.04s.13.01.61.01c1.05,0,1.29-.14,1.31-.15,0-.34.31-1.79.37-2.01.07-.27.34-.91.74-1.85.34-.8.66-1.54.79-1.93l.07-.21.21-.09c.16-.07.32-.13.42-.17l.13-.05.34.06,14.92,5.23-.96.54c-.22.13-.44.25-.64.38-.73.35-3.48,4.18-4.38,5.44-.16.23-.29.41-.38.53.07,0,.14.02.19.02.28.03.52.05.68.12.12.04.3.07.49.07.26,0,.76-.05,1.26-.38.63-.43,3.99-2.92,5.64-4.51l.32-.31.34.28c.55.44,1.74.75,2.96.76h0c1.1,0,1.89-.22,2.2-.59l.04-.14s.09-.57.18-1.17c.22-1.43.35-2.27.39-2.51v-.1c.03-.18-.09-.38-.36-.6l-1.19-.25.2-.98,1.3.27c.17.03.36.07.53.11.48.11.97.22,1.41.17.39-.08,1.31-.71,2-2.5.63-1.65,1.32-3.53,1.45-4.01-.17-.09-.72-.21-1.12-.13-.7.16-1.29.62-1.9,1.11-.34.26-.63.49-.92.66-.43.31-2.86,2.22-3.29,2.92l-.09.14c-.39.62-.52.83-1.23,1.4l-.15.12h-.19c-.11-.01-.21-.02-.32-.02-1.3,0-1.93.34-1.98.67-.04.19-.09.56-.15.94l-.08.61-16.98-5.88v-1.03s.15-.26.15-.26l1.82-1.92h.65c.62,0,.96-.07,1-.21v-.04h0s0-.15.02-.29l.03-.31.29-.11c.15-.06.28-.14.44-.27l.02-.04c0-.1-.02-.34-.25-.91l-.19-.47.47-.18c.87-.34,3.18-1.24,3.92-1.55l.16-.07.17.04c.18.05.48.07.84.07.97,0,1.5-.16,1.6-.27.16-.14.17-.78.18-.99,0-.28.04-.8.07-1.18l.04-.57.56.12c1.5.31,3.12.7,4.69,1.07,2.14.51,4.32,1.03,6.3,1.39.59.12,1.1.17,1.42.2-.99-.15-2.7-.58-4.4-1.01-.84-.21-1.57-.4-1.92-.47-.27-.08-.94-.21-1.85-.39-3.4-.68-4.58-.97-4.91-1.2l-.05-.02s-.23-.04-.61-.11v-.51s-.1.49-.1.49c-.63-.13-1.18-.24-1.64-.34l-.78.12.19.48-.76.31c0,.12-.01.26-.02.38l-.03.46c-.02.25-.05.53-.05.78v.34s-3.94,1.54-3.94,1.54l-.2-.42c-.18-.38-.24-.46-.25-.48-.19-.1-.58-.24-1.02-.32-.04,0-.13,0-.24,0-.44,0-1.49.04-1.67.08-.22.05-.61.23-.89.39l-.12.06h-.97s-.06.02-.06.02c-.06.18-.1.73-.06,1.33.04.12.06.22.08.31l.2.81-.8-.18c-.13-.03-.27-.06-.4-.08h-.11c-.22,0-.42.04-.6.07-.22.04-.36.07-.47.07-.12,0-6.34-.07-10.66-.12-2.27-.03-4.02-.05-4.07-.05-.91-.14-1.8-.13-2.67,0l-.22.03-.17-.14c-.6-.5-.8-.65-.86-.68-.12-.07-.41-.17-.6-.24-.11-.04-.19-.06-.22-.08-.14-.08-1.28-.79-2.11-1.31l-1.48-.92v-.26c-.03-.4-.09-1.68-.14-2.26l-.04-.64.63.11s.02,0,.03,0l-.02-.52c-.53.14-1.1.27-1.55.31-1.47.15-2.29.27-3.57.61l-.13.02c-.31.04-6.95.95-7.28,1.02-.29.06-3.14.55-4.79.77.74-.04,1.88-.15,3.56-.42,1.22-.19,2.33-.37,3.32-.53l.27-.04c1.99-.33,3.71-.61,5.25-.78l.52-.06.03.53c.08,1.47.13,2.12.15,2.23h0s.05.09.28.17c.17.06.51.13,1.13.13.34,0,.64-.02.83-.04l.19-.02,1.81,1.29c.88.62,1.7,1.2,1.89,1.35l.12.09.05.14.14.24s.07.11.37.35l.27.22-.11.33c-.02.06-.03.13-.03.19l.07,1.88h0s4.48.09,4.48.09l-.02,1-4.76-.09c-.9.12-.92.35-.93.45,0,.03,0,.08,0,.13.07,1.03.12,1.71.15,2.05l.03.32-12.25,7.09-.08-.91c0-.18-.08-.32-.22-.45-.44-.39-1.49-.6-2.7-.5l-.19.02-.15-.12c-.78-.6-1.18-1.03-1.22-1.08-.51-.84-4.6-3.38-5.02-3.59-.34-.17-.66-.38-.97-.59-.68-.45-1.31-.88-2.24-1.06-.6-.07-1.14.1-1.25.22.1.29,1.94,3.42,2.81,4.77.96,1.49,1.7,1.85,2.3,2.01.46.08,1.13-.06,1.68-.19.34-.08.66-.15.94-.19l1.72-.21-1.34,1.09c-.56.45-.49.73-.46.82l.06.38c.32,2.15.51,3.32.56,3.48l.03.1c.04.18.51.52,1.58.65.25.03.54.05.84.05.62,0,2.73-.1,3.67-1.33l.3-.39.39.29c2.34,1.7,6.58,4.53,7.09,4.74.17.07.35.16.55.27.65.35,1.37.73,2.2.59.68-.12,1.02-.22,1.19-.29-.47-.31-.91-.71-1.29-1.15-.71-.83-4.46-4.28-4.79-4.52-.29-.21-1.34-.84-3.18-1.68l-.88-.4,1.88-1.09c2.75-1.59,8.07-4.67,10.04-5.82l.16-.09.55.12c.16.04.27.06.4.08.39.08.74.08,1.05.01.3-.06,1.11-.23,1.31-.24l.76-.03.03.49c0,.1.01.21.03.3.07.23,1.29,1.54,1.95,2.24.2.21.35.38.43.47.27.31,1.13,1.03,1.59,1.42l.33.27c.13.12.33.17.6.17l3.52-.03-.02,4.85-9.04-.1-.14-.13c-.06-.06-.16-.09-.28-.1h-.13c-.53-.03-.99.02-1.16.18-.06.06-.08.12-.08.21-.01.22-.04.6.13.78.07.07.16.11.29.11h.16c.57.03.96,0,1.11-.12l.14-.13,9,.06-.06,13.99-11.3.06-.15-.17c-.18-.17-.49-.2-.76-.2h-.53s-.29,0-.29,0ZM27.22,32.11v.03s0,0,0,0v-.02ZM29.34,18.27l.06.1v-.37l-.06.27ZM80.57,12.28l.02.06s0-.03,0-.04l-.03-.02ZM77.16,7.08v.03h.01s-.01-.03-.01-.03ZM56.39,3.19c.22.06.42.1.6.11-.18-.03-.39-.07-.6-.11ZM48.7,1.05c.44.23,1.12.51,1.85.79l.16-.53s-.05-.01-.07-.02c-1.32-.31-1.66-.33-1.94-.24ZM34.55,1.27l.11.54c.84-.23,1.44-.4,1.5-.42.88-.24,1.08-.37,1.13-.42-.08.03-.44.03-.61.03-.25.02-1.01.12-1.75.22l-.3.04s-.05,0-.08,0Z"/>
                <path class="cls-2" d="M27.91,43.75c-.15-.14-.22-.33-.22-.56-.04-.52.03-.87.23-1.09.13-.15.32-.23.58-.24.04,0,.33,0,.45,0h.1c.43-.01.86-.02,1.12.22.04.04.08.09.1.14l11.11-.06.06-13.69-8.81-.06c-.17.31-.82.28-1.25.26-.08,0-.14,0-.2,0-.17,0-.3-.05-.39-.16-.21-.22-.18-.65-.17-.88,0-.13.04-.24.13-.32.26-.26.86-.24,1.26-.23.05,0,.1,0,.14,0,.21,0,.36.08.46.23l8.85.09.02-4.54c-1.25,0-2.42.02-2.98.02-.19,0-.31,0-.34,0h0c-.32,0-.57-.06-.75-.21-.05-.05-.17-.15-.32-.27-.5-.42-1.34-1.12-1.61-1.44-.08-.09-.23-.25-.43-.46-.99-1.06-1.96-2.11-1.99-2.32-.03-.24-.04-.54-.04-.65-.22,0-.43.02-.61.02-.16,0-.88.15-1.28.23-.35.08-.71.08-1.11,0-.15-.03-.29-.06-.43-.09-.16-.04-.32-.07-.47-.1-2.44,1.42-10.9,6.31-11.78,6.82,2.22.97,3.47,1.71,3.83,1.97.33.24,4.1,3.71,4.81,4.54.39.45.84.87,1.33,1.23.05.04.06.04.06.07,0,.02-.01.04-.03.04h0c-.12.07-.46.21-1.35.36-.86.15-1.64-.26-2.27-.6-.2-.11-.39-.21-.56-.27-.56-.23-5.18-3.33-7.42-4.97-.86,1.53-3.36,1.81-4.84,1.62-.99-.13-1.64-.44-1.74-.84-.06-.13-.34-1.95-.57-3.52l-.04-.28s-.01-.05-.01-.06,0,0,0-.01c-.09-.32.06-.81,1.17-1.43-.06-.04-.12-.08-.18-.12l-.05-.03c-.43-.13-1,.01-1.61.16-.6.14-1.22.29-1.75.19-.63-.16-1.4-.54-2.39-2.07-1.02-1.56-2.81-4.67-2.85-4.83h0s0-.07.05-.13c.15-.17.68-.36,1.4-.27.96.19,1.63.64,2.28,1.08.33.22.64.43.97.59.49.24,4.69,2.87,5.04,3.59.11.13.57.6,1.33,1.17,1.27-.13,2.45.08,2.94.52.18.16.27.34.27.55l.06.67,11.95-6.92c-.01-.09-.05-.47-.17-2.26,0-.06,0-.12,0-.16.05-.59,1.23-.63,2.37-.67.39-.01.8-.03,1.14-.06.4-.02.84-.05,1.27-.1-.3-.02-.69-.02-1.1-.03-.91-.02-1.86-.04-2.17-.14-.27-.1-.29-.41-.29-.43l-.07-1.88c0-.16.05-.31.15-.45-.13-.09-.54-.41-.63-.57-.03-.05-.05-.09-.08-.14-.06-.11-.13-.23-.19-.28-.19-.15-1.02-.73-1.89-1.35-.64-.46-1.31-.93-1.77-1.26-.24.05-1.51.14-2.15-.07-.22-.07-.35-.18-.39-.31,0-.02-.17-2.29-.16-2.53h0s0-.04.02-.06c-1.64.16-3.41.45-5.63.81-1.06.17-2.26.37-3.59.58-3.43.54-4.55.44-4.67.42-.14-.02-.21-.05-.24-.1-.01-.02,0-.05.01-.07.03-.04.1-.05.18-.04.02,0,.04,0,.07,0,.75,0,5.56-.82,5.83-.88.17-.05,7.33-1.02,7.39-1.03,1.29-.34,2.12-.46,3.59-.62.63-.06,1.52-.3,2.11-.46.24-.07.42-.11.5-.13.34-.06,6.87-.9,6.91-.9.09,0,.73-.09,1.41-.18.74-.1,1.51-.2,1.72-.22h.05c.63,0,.73.07.74.15,0,.06.03.2-1.22.54-.24.07-6.38,1.79-7.13,1.99-.76.2-1.57.35-2.4.04-.61-.23-1.18-.36-1.67-.39-.04,0-.08,0-.13.01.1.04.17.08.19.13.01.02.01.04.01.05.03.28.15,2.43.15,2.58v.09c.16.1.53.33.98.61.98.61,2.45,1.53,2.52,1.56.03.01.11.04.21.08.21.07.5.17.62.25.15.09.7.54.93.74l.07.06c.93-.16,1.91-.17,2.84-.02.15,0,14.56.16,14.7.16h.02c.11,0,.26-.03.42-.06.24-.05.51-.1.78-.08.31.04.78.17,1.01.24-.07-.15-.12-.36-.17-.55-.03-.13-.07-.26-.1-.35-.03-.24-.04-1.37.13-1.55,0,0,.02-.01.03-.01h0c.38,0,1,.01,1.04,0,.24-.14.73-.39,1.01-.45.12-.04,1.76-.11,1.96-.07.22.04.75.17,1.09.36.07.06.26.47.42.82l3.72-1.45c-.03-.27,0-.71.04-1.03,0-.08.01-.16.02-.22,0-.04,0-.13.01-.24.01-.21.03-.51.04-.62,0,0,0-.02,0-.02v-.02c.01-.13.14-.25.4-.36-.12-.02-.21-.04-.24-.04-.34-.09-.88.07-1.41.22-.4.12-.78.22-1.06.22-.01,0-.03,0-.04,0-.77.06-1.91-.39-2.74-.71-.13-.05-.25-.1-.36-.14-.55-.25-1.4-.56-2.29-.89-1.32-.49-2.68-.99-3.34-1.36,0,0-.01,0-.02-.02-.02-.03-.02-.07,0-.1.06-.1.34-.16.39-.16h.01s.03,0,.04,0c.42,0,1.17.15,1.73.29.8.19,3.05.6,4.86.94,1.28.24,2.29.42,2.44.46.07.02.15.04.23.06.38.1.91.23,1.32.43.35.16,2.14.52,3.22.74.44.09.74.15.8.17,0,0,0,0,.01,0,.38.29,2.97.8,4.86,1.18.88.17,1.58.31,1.85.39.35.08,1.08.26,1.92.47,1.77.45,4.19,1.07,4.88,1.1.01,0,.02,0,.03,0,.14,0,.17.02.19.05.01.02.01.04,0,.06-.04.07-.26.12-.45.12-.02,0-.05,0-.07,0h-.1c-.33-.04-.89-.09-1.55-.22-1.97-.36-4.15-.88-6.25-1.38-1.72-.41-3.5-.83-5.12-1.16-.02.25-.09,1.16-.1,1.56,0,.44-.03.93-.22,1.09-.35.35-2.28.39-2.69.2-.63.27-3.96,1.57-4.38,1.73.33.73.45,1.19.39,1.38,0,0,0,.01-.01.02-.25.22-.47.34-.73.4-.01.11-.05.5-.05.57,0,0,0,0,0,.01-.09.32-.76.33-1.43.32-.13,0-.25,0-.3,0l-1.87,1.98c0,.06.01.19,0,.24v.72s16.51,5.72,16.51,5.72c.07-.04.13-.07.21-.12.06-.46.13-.96.17-1.13,0-.03,0-.05,0-.06.09-.62,1.36-.86,2.58-.78.79-.62.9-.8,1.3-1.44l.09-.14c.48-.77,3.11-2.8,3.35-2.97.29-.17.59-.4.9-.65.6-.48,1.23-.97,1.97-1.14.49-.09,1.15.07,1.29.18.02.02.04.04.04.07,0,.11-.76,2.25-1.47,4.09-.72,1.85-1.68,2.5-2.13,2.6-.46.05-.96-.06-1.45-.17-.48-.11-.93-.21-1.32-.16-.09.05-.18.11-.3.2,1.16.54,1.36.99,1.32,1.29,0,0,0,.01,0,.02,0,.07-.17,1.14-.39,2.52-.11.68-.21,1.32-.21,1.35,0,0,0,.02,0,.03-.32.45-1.15.71-2.29.71-.03,0-.06,0-.09,0-1.27-.01-2.78-.37-3.27-1.01,0,0,0,0,0,0-1.55,1.57-5.18,4.28-5.89,4.76-.72.48-1.54.45-1.88.32-.16-.06-.43-.09-.64-.11-.31-.03-.41-.04-.41-.12,0,0,0-.02,0-.03.07-.09.24-.32.47-.65,1.1-1.53,3.68-5.13,4.43-5.49.4-.24.82-.48,1.32-.75-1.08-.38-14.48-5.08-14.56-5.11-.02,0-.07-.01-.13-.02-.06,0-.13-.02-.19-.03h-.01c-.08.03-.38.15-.65.27-.09.34-.46,1.22-.83,2.08-.34.81-.67,1.57-.74,1.84-.07.26-.37,1.66-.35,1.97,0,.05-.03.09-.08.13-.35.23-2,.19-2.1.14-.02,0-.05-.02-.08-.04-.11-.05-.28-.14-.61-.15-.17,0-1.49,0-3.01,0h-.3s-.03,4.56-.03,4.56l8.65.09c.11-.36.86-.31,1.27-.29.05,0,.09,0,.13,0,.16,0,.3.05.39.15.2.22.19.62.17.91,0,.16-.05.28-.14.38-.25.24-.78.22-1.17.2-.08,0-.15,0-.21,0-.21,0-.36-.1-.43-.3l-8.67-.06-.09,13.67,11.33-.06c.22-.34.79-.32,1.25-.3.17,0,.34.02.47,0,.22,0,.4.08.52.21.24.26.24.73.22,1.05,0,.23-.07.41-.21.54-.29.27-.81.25-1.28.24-.15,0-.3-.01-.42,0-.27,0-.45-.11-.55-.34l-23.86.13c-.03.08-.07.14-.13.2-.11.12-.27.18-.47.18h0c-.14,0-.24,0-.36,0h-.06c-.06,0-.11,0-.17,0-.06,0-.12,0-.17,0-.32,0-.72-.03-.96-.26ZM54.12,43.39s.02,0,.03,0,.02.01.02.02c.08.21.24.32.48.32.12,0,.27,0,.43,0,.45.02.95.04,1.21-.21.12-.11.18-.27.18-.48.02-.31.02-.75-.2-.99-.11-.12-.26-.18-.45-.18-.13.01-.3,0-.48,0-.45-.02-1.01-.04-1.19.28,0,.01-.02.02-.04.02l-11.4.06h0s-.02,0-.03-.01c0,0-.01-.02-.01-.03l.09-13.76s.02-.04.04-.04l8.74.06s.04.01.04.03c.06.19.17.27.36.27.06,0,.14,0,.21,0,.37.02.88.04,1.11-.17.08-.08.12-.18.12-.32.01-.28.03-.66-.15-.85-.08-.08-.18-.12-.33-.13-.04,0-.08,0-.13,0-.37-.02-1.13-.06-1.19.26,0,.02-.02.04-.04.04h0l-8.71-.09h-.02s-.02,0-.03-.01c0,0-.01-.02-.01-.03l.03-4.65s.02-.04.04-.04h.34c1.53-.01,2.85-.02,3.02,0,.34.01.52.1.64.16.03.01.05.02.08.03.11.05,1.72.08,2.02-.13.02-.02.04-.03.04-.05-.02-.34.29-1.77.36-2,.07-.28.4-1.04.75-1.85.37-.87.75-1.76.83-2.08,0-.01.01-.02.02-.03.28-.12.61-.25.68-.28,0,0,.01,0,.02,0h.03c.07.01.14.02.2.03.07.01.12.02.14.02.08.03,14.04,4.93,14.63,5.13.01,0,.02.01.02.02v.02s.01.05,0,.06c-.53.29-.97.53-1.39.79-.73.35-3.3,3.93-4.4,5.46-.21.29-.36.5-.44.61.06.02.2.03.31.04.22.02.49.05.67.11.28.1,1.09.16,1.81-.32.71-.48,4.34-3.18,5.88-4.75,0,0,0-.01.01-.02.01-.01.02-.03.04-.04.02,0,.04,0,.06.01.38.56,1.77,1,3.23,1.02.03,0,.05,0,.08,0,1.09,0,1.91-.25,2.22-.67,0-.07.06-.4.21-1.35.15-.97.36-2.29.38-2.49,0,0,0-.02,0-.03.08-.38-.39-.82-1.33-1.25-.01,0-.02-.02-.03-.03,0-.01,0-.03.02-.04.15-.12.26-.2.37-.26,0,0,0,0,.02,0,.41-.05.87.05,1.36.16.48.11.98.22,1.42.17.43-.09,1.36-.73,2.06-2.54.71-1.85,1.46-3.95,1.47-4.05-.04-.07-.7-.27-1.22-.17-.72.17-1.34.65-1.94,1.12-.32.25-.61.48-.91.65-.22.16-2.85,2.19-3.32,2.94l-.08.14c-.42.66-.53.84-1.34,1.48,0,0-.02,0-.03,0-1.37-.09-2.44.21-2.51.7,0,0,0,.02-.01.07-.04.17-.11.67-.17,1.14,0,.01,0,.03-.02.03-.09.05-.17.1-.24.14-.01,0-.02,0-.04,0l-16.56-5.74s-.03-.02-.03-.04v-.75s0,0,.01-.01c0-.03,0-.19,0-.23,0-.01,0-.03.01-.04l1.9-2s.01-.01.02-.01c.05-.01.15-.01.33,0,.44.01,1.26.02,1.35-.25,0-.1.05-.58.05-.6,0-.02.02-.03.03-.04.26-.05.47-.16.72-.38.03-.13-.01-.47-.41-1.35,0-.01,0-.02,0-.03,0-.01.01-.02.02-.02.04-.01,3.8-1.47,4.43-1.75,0,0,.02,0,.03,0,0,0,.01,0,.02,0,.33.18,2.29.15,2.61-.18.16-.14.19-.58.19-1.03,0-.42.08-1.39.1-1.6,0-.01,0-.03,0-.04.01-.03.05-.03.07-.01,1.63.33,3.42.75,5.15,1.16,2.11.5,4.28,1.01,6.25,1.38.66.13,1.21.18,1.54.21h.1c.16.02.33-.02.4-.05-.02,0-.06,0-.1,0-.7-.04-3.13-.65-4.9-1.1-.84-.21-1.57-.4-1.92-.47-.28-.08-1.01-.22-1.85-.39-1.89-.37-4.46-.89-4.89-1.19-.07-.02-.39-.08-.78-.16-1.08-.22-2.88-.58-3.23-.75-.41-.19-.93-.32-1.31-.42-.09-.02-.16-.04-.24-.06-.15-.04-1.21-.24-2.43-.46-1.81-.33-4.07-.75-4.87-.94-.55-.13-1.29-.29-1.71-.29-.01,0-.03,0-.04,0h-.02c-.07,0-.29.06-.32.11,0,0,0,0,0,0,.66.37,2.01.87,3.32,1.35.9.33,1.75.64,2.3.89.11.04.23.09.36.14.77.3,1.82.71,2.56.71.05,0,.1,0,.14,0,.01,0,.03,0,.04,0,.27,0,.64-.11,1.04-.22.53-.16,1.09-.32,1.45-.22.04,0,.18.03.39.07.02,0,.03.02.04.04s-.01.04-.03.04c-.42.15-.49.28-.49.34v.06s0,.02-.01.03c-.01.13-.02.38-.03.57,0,.11-.01.2-.01.24,0,.06-.01.14-.02.22-.03.33-.07.78-.03,1.04,0,.02,0,.04-.03.05l-3.79,1.48s-.05,0-.06-.02c-.25-.56-.38-.8-.41-.82-.32-.19-.85-.31-1.06-.35-.19-.03-1.82.04-1.92.07-.27.06-.75.3-1,.44-.04.02-.59,0-1.06,0-.12.17-.14,1.16-.1,1.46.03.09.07.21.1.35.06.23.12.49.21.63.01.02,0,.04,0,.05-.01.02-.03.02-.05.01-.13-.05-.73-.23-1.09-.27-.26-.02-.52.03-.75.08-.17.03-.31.06-.43.06,0,0-.02,0-.02,0-.14,0-14.56-.16-14.71-.16-.93-.14-1.92-.13-2.84.02-.01,0-.03,0-.03,0l-.09-.07c-.21-.18-.78-.64-.92-.73-.12-.07-.41-.17-.61-.24-.1-.04-.18-.06-.22-.08-.06-.03-1.18-.73-2.53-1.57-.46-.29-.85-.53-1-.62-.01,0-.02-.02-.02-.04v-.11c0-.15-.11-2.29-.15-2.58,0,0,0,0,0,0,0,0,0,0,0,0,0,0,0-.01-.01-.02-.01-.04-.2-.11-.27-.13l-.05-.02s-.03-.03-.03-.05c0-.02.02-.04.04-.04h.02c.11-.01.22-.02.3-.03.51.03,1.08.16,1.7.39.8.3,1.6.15,2.35-.04.75-.21,6.89-1.92,7.13-1.99.89-.25,1.15-.4,1.15-.44,0,0-.06-.08-.66-.08h-.05c-.2.02-.97.12-1.71.22-.68.09-1.33.18-1.41.18-.04,0-6.56.84-6.91.9-.08.02-.26.06-.49.13-.59.16-1.49.4-2.12.46-1.47.15-2.29.27-3.58.61-.46.06-7.25.99-7.39,1.03-.05.01-5.03.88-5.86.88-.04,0-.06,0-.08,0-.03,0-.06,0-.07,0,.02.01.07.03.15.03.12.01,1.23.11,4.65-.42,1.33-.21,2.53-.4,3.59-.58,2.27-.37,4.07-.67,5.74-.82,0,0,.02,0,.03.02,0,0,.01.02.01.04,0,.02-.01.03-.03.04-.03,0-.05.05-.05.06,0,0,0,0,0,.01,0,.11.13,2.4.15,2.5.02.07.08.14.18.19.56.31,2.15.17,2.27.14.02,0,.03,0,.04,0,.46.33,1.13.81,1.78,1.27.87.62,1.7,1.2,1.89,1.35.07.07.14.18.21.31.03.05.05.09.08.14.1.18.64.57.65.57,0,0,.02.02.02.03s0,.02,0,.03c-.1.13-.15.27-.15.43l.07,1.88s.02.28.23.35c.3.1,1.28.12,2.14.13.63.01,1.22.02,1.5.06.02,0,.04.03.04.05s-.02.04-.04.04c-.57.07-1.15.12-1.67.15-.34.04-.75.05-1.14.06-1.11.04-2.25.07-2.29.59,0,.04,0,.09,0,.15.14,1.98.17,2.25.17,2.27,0,0,0,.02,0,.02,0,.02,0,.03-.02.04l-12.03,6.97s-.03,0-.04,0c-.01,0-.02-.02-.02-.03l-.07-.74c0-.18-.08-.34-.24-.49-.48-.43-1.62-.63-2.86-.5,0,0,0,0,0,0-.01,0-.03,0-.05,0-.79-.59-1.26-1.07-1.37-1.21,0,0,0,0,0-.01-.31-.68-4.52-3.32-5-3.55-.33-.16-.65-.37-.98-.59-.64-.43-1.31-.88-2.25-1.06-.68-.08-1.19.09-1.32.24-.02.02-.03.04-.03.05.04.14,1.79,3.19,2.83,4.8.97,1.51,1.73,1.87,2.34,2.03.51.1,1.12-.05,1.71-.19.62-.15,1.21-.29,1.66-.15,0,0,0,0,.01,0l.05.03c.08.05.16.1.24.16.01,0,.02.02.02.04s0,.03-.02.04c-.91.49-1.32.97-1.18,1.39,0,0,0,.02,0,.03,0,0,0,.01,0,.02l.04.29c.12.83.5,3.35.57,3.5.09.37.73.67,1.67.79,1.48.19,3.97-.09,4.78-1.62,0-.01.02-.02.03-.02,0,0,.02,0,.03,0,2.22,1.64,6.87,4.76,7.44,4.99.17.07.36.17.57.28.62.32,1.38.73,2.21.59.79-.13,1.13-.26,1.27-.32-.49-.36-.93-.77-1.33-1.23-.71-.83-4.47-4.29-4.8-4.53-.36-.26-1.63-1.01-3.89-1.99-.02,0-.03-.02-.03-.04s0-.03.02-.04c.09-.05,9.33-5.39,11.87-6.87,0,0,.02,0,.03,0,.16.02.32.06.49.1.14.03.28.06.43.09.39.08.74.08,1.07,0,.3-.06,1.11-.22,1.3-.24.2,0,.42-.02.66-.03,0,0,.02,0,.03.01,0,0,.01.02.01.03,0,0,0,.39.04.69.03.2,1.34,1.6,1.97,2.28.2.21.35.38.43.46.27.31,1.1,1.01,1.6,1.43.15.13.27.23.33.28.16.14.39.2.69.19.02,0,.14,0,.34,0,.56,0,1.75-.02,3.02-.02h0s.02,0,.03.01c0,0,.01.02.01.03l-.02,4.62s0,.02-.01.03c0,0-.02.01-.03.01h0l-8.92-.1s-.03,0-.04-.02c-.08-.14-.2-.2-.4-.21-.04,0-.09,0-.14,0-.36,0-.96-.03-1.2.2-.07.07-.1.15-.1.26-.01.22-.04.62.14.82.08.08.19.13.33.13.06,0,.13,0,.2,0,.39.02,1.05.05,1.18-.23,0-.02.02-.03.04-.03h0l8.88.06s.04.02.04.04l-.06,13.77s-.02.04-.04.04l-11.18.06h0s-.03-.01-.04-.03c-.02-.05-.05-.09-.09-.13-.23-.22-.65-.21-1.05-.2h-.1c-.06,0-.11,0-.17,0-.11,0-.21,0-.28,0-.23,0-.4.08-.51.21-.18.19-.25.54-.21,1.03,0,.21.07.38.19.51.22.21.6.24.91.24.06,0,.11,0,.17,0,.06,0,.12,0,.17,0h.06c.12,0,.22,0,.36-.01.18,0,.32-.05.41-.15.06-.06.1-.12.12-.2,0-.02.02-.03.04-.03l23.89-.13h0Z"/>
              </g>
            </g>
            <path class="cls-2" d="M.89,15.56c.03.15,1.81,3.23,2.84,4.81,1.02,1.58,1.8,1.9,2.36,2.05,1.05.2,2.49-.61,3.37-.35.1.06.19.12.29.19-1.02.55-1.33,1.05-1.2,1.44h0s0,.02,0,.04c.06.4.54,3.63.61,3.79.28,1.15,5.33,1.43,6.53-.82,2.17,1.6,6.87,4.76,7.45,5,.68.27,1.68,1.06,2.8.87,1.13-.19,1.33-.35,1.34-.35,0,0-.68-.46-1.38-1.26-.7-.82-4.47-4.29-4.8-4.54-.29-.21-1.52-.96-3.9-2,0,0,9.3-5.38,11.87-6.87.29.04.59.13.92.19.34.07.7.1,1.09,0,.37-.08,1.12-.23,1.29-.23.2,0,.42-.02.66-.03,0,0,0,.39.04.69.04.28,2.04,2.35,2.41,2.76.35.41,1.71,1.51,1.93,1.71.22.19.52.21.72.2.09,0,1.64-.02,3.36-.03l-.02,4.62-8.92-.1c-.08-.14-.21-.23-.43-.23-.43,0-1.48-.1-1.48.5-.03.42-.03.99.52,1,.36,0,1.26.12,1.42-.25l8.88.06-.06,13.77-11.18.06c-.03-.06-.06-.1-.1-.15-.26-.25-.75-.22-1.19-.21-.17,0-.33,0-.45,0-.24,0-.42.09-.55.23-.24.27-.24.74-.22,1.06,0,.23.07.41.21.54.22.21.57.25.93.25.11,0,.23,0,.35,0,.15,0,.26,0,.42-.01.19,0,.34-.05.44-.16.06-.06.1-.13.13-.22l23.9-.13h.02c.08.19.23.34.53.34.62-.03,1.84.25,1.86-.73.03-.54,0-1.2-.7-1.22-.46.05-1.43-.17-1.7.3l-11.4.06.09-13.76h.02l8.72.06h0c.05.17.16.3.4.3.49,0,1.49.16,1.48-.52.02-.42.04-1.01-.52-1.02-.33-.01-1.3-.12-1.37.29l-8.71-.09h-.02l.03-4.65c1.66,0,3.18-.02,3.36,0,.42.02.59.15.7.19.11.05,2.13.1,2.12-.23-.02-.32.29-1.73.35-1.98.15-.58,1.43-3.32,1.58-3.94.25-.11.56-.23.68-.28h.02c.16.03.29.04.33.05.08.03,14.63,5.13,14.63,5.13v.02c-.47.26-.94.52-1.38.79-.9.43-4.5,5.63-4.88,6.12,0,.08.7.06,1.02.18.33.12,1.14.15,1.84-.32.69-.47,4.35-3.19,5.89-4.75.02-.02.03-.03.04-.04.74,1.11,4.8,1.49,5.61.35,0-.03.59-3.75.6-3.88h0c.08-.36-.29-.81-1.35-1.3.13-.1.25-.19.36-.25.82-.1,1.89.43,2.78.33.41-.09,1.36-.68,2.1-2.57.73-1.89,1.47-3.98,1.47-4.08s-.73-.31-1.27-.21c-1.12.26-2.01,1.29-2.86,1.78-.22.16-2.86,2.19-3.33,2.95-.48.77-.55.93-1.41,1.6-1.27-.09-2.48.18-2.55.74,0,0,0,.02,0,.06-.03.16-.11.66-.17,1.14-.09.05-.16.1-.24.14l-16.56-5.74v-.75s0-.21,0-.25l1.9-2c.17-.04,1.59.12,1.71-.29,0-.09.05-.61.05-.61h0c.29-.06.51-.19.74-.4.08-.23-.16-.86-.41-1.39,0,0,3.79-1.47,4.43-1.75h0c.36.2,2.33.15,2.66-.18.17-.16.2-.62.21-1.06,0-.43.09-1.45.1-1.61h0s0,0,0,0h0c3.61.74,7.82,1.89,11.42,2.55.74.15,1.36.19,1.65.22.34.03.72-.16.3-.15-1.02-.05-5.71-1.34-6.81-1.58-.88-.24-6.16-1.14-6.73-1.58-.2-.06-3.52-.68-4.02-.91-.5-.23-1.17-.38-1.55-.48s-5.95-1.08-7.31-1.4c-1.35-.32-1.71-.29-1.77-.29-.07,0-.42.08-.35.19,1.12.63,4.28,1.64,5.64,2.25.82.31,2.21.92,3.08.85.64.03,1.89-.61,2.52-.44.04,0,.18.03.39.07-.35.13-.51.26-.52.38v.06s0,0,0-.02c-.02.16-.04.74-.05.86-.03.33-.1.94-.05,1.27l-3.79,1.48c-.16-.35-.36-.79-.42-.84-.29-.16-.74-.29-1.07-.35-.18-.03-1.83.03-1.94.07-.29.06-.78.31-1,.44-.04.02-1.06,0-1.06,0-.16.16-.16,1.25-.12,1.52.09.23.16.75.31.99-.14-.05-.74-.23-1.1-.28-.46-.03-.92.15-1.21.14-.14,0-14.7-.16-14.7-.16-.86-.13-1.84-.15-2.86.03-.1-.08-.84-.7-1.01-.81-.18-.1-.74-.28-.83-.32-.1-.04-3.05-1.9-3.52-2.19v-.11c0-.16-.11-2.29-.15-2.58,0,0,0-.03,0-.03-.02-.07-.23-.14-.35-.18.12,0,.23-.02.32-.03.27.02.84.08,1.69.39.84.31,1.66.15,2.37-.04.7-.19,6.87-1.91,7.13-1.99.72-.2,2.02-.61.43-.61-.39.03-2.94.39-3.13.4-.17.02-6.61.85-6.91.9-.29.05-1.72.5-2.61.59-1.49.16-2.31.28-3.58.61-.28.03-7.24.99-7.39,1.03-.16.03-5.48.95-5.92.87-.16-.03-.24.09.06.12s1.58.06,4.66-.42c4.18-.65,6.87-1.18,9.33-1.4h0s-.08.09-.08.11c-.02.03.14,2.48.16,2.52.17.61,2.48.38,2.51.35,1.07.77,3.33,2.35,3.67,2.61.1.09.18.28.28.43.1.19.66.59.66.59-.1.13-.16.28-.16.46l.07,1.88s.02.3.26.39c.52.17,2.97.1,3.65.2h0c-.55.08-1.13.13-1.67.16-1.3.14-3.41-.06-3.47.69,0,.04,0,.1,0,.16.04.62.16,2.23.17,2.29h0s-12.03,6.98-12.03,6.98l-.07-.74c0-.84-1.6-1.19-3.17-1.03h0c-.82-.61-1.28-1.09-1.37-1.19-.32-.7-4.6-3.37-5.02-3.58-.98-.48-1.8-1.38-3.24-1.66-.83-.1-1.43.19-1.39.35Z"/>
          </g>
          <g>
            <g class="cls-3">
              <path class="cls-2" d="M85.49,23.93h1.93v8.89h-1.93c-.44,0-.85.23-1.09.63-.25.41-.27.93-.04,1.36l7.89,15.1c.22.43.66.7,1.13.7s.91-.27,1.14-.7l7.9-15.1c.23-.43.21-.95-.04-1.36-.24-.39-.65-.63-1.09-.63h-1.93v-8.89h1.93c.44,0,.85-.24,1.09-.63.25-.41.27-.94.04-1.37l-7.89-15.09c-.22-.43-.66-.7-1.13-.7s-.91.26-1.14.7l-7.9,15.09c-.23.43-.21.96.04,1.37.24.39.65.63,1.09.63ZM85.04,22.29l7.9-15.1c.21-.38.71-.38.91,0l7.89,15.1c.2.39-.05.87-.45.87h-2.24c-.25,0-.46.22-.46.5v9.52c.04.23.22.41.44.41h2.26c.4,0,.65.48.45.87l-7.91,15.09c-.2.39-.7.39-.9,0l-7.89-15.09c-.2-.39.05-.87.45-.87h2.24c.25,0,.46-.23.46-.51v-9.52c-.04-.23-.22-.4-.44-.4h-2.26c-.4,0-.65-.48-.45-.87Z"/>
              <path class="cls-2" d="M93.4,6.14c-.48,0-.91.26-1.14.7l-7.9,15.09c-.23.43-.21.96.04,1.37.24.39.65.63,1.09.63h1.93v8.89h-1.93c-.44,0-.85.23-1.09.63-.25.41-.27.93-.04,1.36l7.89,15.1c.22.43.66.7,1.13.7s.91-.27,1.14-.7l7.9-15.1c.23-.43.21-.95-.04-1.36-.24-.39-.65-.63-1.09-.63h-1.93v-8.89h1.93c.44,0,.85-.24,1.09-.63.25-.41.27-.94.04-1.37l-7.89-15.09c-.22-.43-.66-.7-1.13-.7h0ZM85.49,23.16c-.4,0-.65-.48-.45-.87l7.9-15.1c.11-.19.28-.28.46-.28s.35.09.45.28l7.89,15.1c.2.39-.05.87-.45.87h-2.24c-.25,0-.46.22-.46.5v9.52c.04.23.22.41.44.41h2.26c.4,0,.65.48.45.87l-7.91,15.09c-.1.2-.28.29-.45.29s-.35-.1-.45-.29l-7.89-15.09c-.2-.39.05-.87.45-.87h2.24c.25,0,.46-.23.46-.51v-9.52c-.04-.23-.22-.4-.44-.4h-2.26Z"/>
            </g>
            <path class="cls-2" d="M85.04,22.29l7.9-15.1c.21-.38.71-.38.91,0l7.89,15.1c.2.39-.05.87-.45.87h-2.24c-.25,0-.46.22-.46.5v9.52c.04.23.22.41.44.41h2.26c.4,0,.65.48.45.87l-7.91,15.09c-.2.39-.7.39-.9,0l-7.89-15.09c-.2-.39.05-.87.45-.87h2.24c.25,0,.46-.23.46-.51v-9.52c-.04-.23-.22-.4-.44-.4h-2.26c-.4,0-.65-.48-.45-.87Z"/>
          </g>
        </g>
      </g>
    </g>
  </g>
</svg>