<?xml version="1.0" encoding="UTF-8"?>
<svg id="Layer_1" data-name="Layer 1" xmlns="http://www.w3.org/2000/svg" version="1.1" viewBox="0 0 72 72">
  <defs>
    <style>
      .cls-1 {
        opacity: .8;
      }

      .cls-1, .cls-2, .cls-3 {
        stroke-width: 0px;
      }

      .cls-1, .cls-3 {
        fill: #fff;
      }

      .cls-2 {
        fill: #e63343;
      }
    </style>
  </defs>
  <circle class="cls-1" cx="36" cy="36" r="23.8" transform="translate(-7.3 62.8) rotate(-76.7)"/>
  <g>
    <path class="cls-2" d="M52.4,40.5c-.1,0-.2.1-.3.2-1.1,1.1-2.2,2.2-3.3,3.3-.5.5-1.1,1-1.5,1.6,0,.1-.2.1-.3,0-.6-.3-1.2-.7-1.6-1.2s-.3-.2-.4,0c-.1.2-.2.1-.3,0-1-1-2.1-2.1-3.1-3.2-.1-.1-.4-.2-.3-.5,0,0,0,0,0-.1-.1-.1-.2-.2-.3-.3-.1-.1-.2-.2-.4-.1-.2,0-.3,0-.2-.2,0-.2,0-.4-.1-.6,0-.1,0-.2,0-.4,0-.6,0-1.4.2-1.9.2-.7.2-.9.2-1.5,0-.6,0-1.8.1-2.5,0-.1,0-.2.1-.3.1-.2.2-.4.2-.6,0-.1,0-.2.1-.1.1,0,.2,0,.3,0,0,0,.2-.1.3-.2.2-.1.4-.2.4-.5,0,0,0,0,.2-.2l1.5-.9c.8-.5,1.7-1,2.5-1.5,0,0,.2,0,.2,0,.1.2.3.2.5.1.6-.3,1.2-.6,1.8-.7.2,0,.2,0,.2.2,0,0,0,.2,0,.2,0,.2,0,.3,0,.4.6,1,1.2,1.9,1.8,2.8.6.9,1.2,1.8,1.8,2.7,0,0,0,.1.2.1.2,0,.4-.2.4-.4s0-.3-.1-.4c-.4-.8-.9-1.5-1.3-2.3-.4-.7-.8-1.4-1.2-2.1-.3-.5-.5-1.1-.9-1.5,0-.1,0-.2,0-.2.6-.4.7-1.1.4-1.8-.2-.3-.4-.4-.6-.6-.3-.2-.7-.3-1-.1,0,0-.2.1-.2,0,0,0,0-.2,0-.3,0-.2,0-.4-.1-.6-.7-1.1-1.4-2.1-2.1-3.2-.5-.7-1-1.5-1.5-2.2,0,0,0-.2-.2-.2-.3,0-.4.3-.3.6,0,.1.1.2.2.3.6,1.1,1.2,2.2,1.8,3.3.5.9.9,1.8,1.5,2.6,0,.1,0,.2,0,.3-.5.5-1,.9-1.6,1.3-.2,0-.3.2-.1.4.1.2,0,.2-.1.3-.6.4-1.3.7-1.9,1.1-.4.2-.9.5-1.3.7-.4.2-.8.5-1.3.6-.2,0-.4.2-.6.3,0,0-.1,0-.1.1,0,.3-.1.3-.3.1,0,0-.1,0-.2,0-.4-.1-.8-.2-1.2-.4-.4-.1-.8-.2-1.2-.2-.9,0-1.8,0-2.7,0-.4,0-.7,0-1.1.2-.4.1-.8.3-1.2.4,0,0-.2,0-.3.1-.2.1-.3.2-.3,0s0-.1,0-.1c-.2-.1-.4-.3-.6-.4,0,0-.1,0-.2,0-.2.1-.4,0-.6,0-.3-.2-.7-.4-1-.6-1-.5-1.9-1.1-2.9-1.6-.1,0-.1-.1,0-.2.2-.2,0-.4-.2-.5-.6-.3-1.1-.7-1.5-1.2-.1-.1,0-.2,0-.3,0,0,.1,0,.2,0,.2,0,.4-.2.5-.4.5-1,1.1-2.1,1.6-3.1.4-.9.9-1.8,1.3-2.7,0,0,.1-.2,0-.3-.2-.2-.4-.2-.6,0-.1,0-.2.2-.3.3-.7,1.3-1.5,2.6-2.3,3.9-.4.6-.8,1.3-1.1,2,0,.2-.2.1-.3,0-.6-.4-1.2,0-1.6.4-.3.3-.3.6-.3,1,0,.4.1.7.4,1,.2.1.1.2,0,.2-.3,0-.5.3-.6.6,0,.2-.2.3-.2.4-.6,1.2-1.2,2.3-1.7,3.5-.3.6-.5,1.1-.8,1.7,0,.2,0,.3.1.4.2.1.3,0,.5,0,0,0,.2-.2.2-.3,1.1-2,2.4-3.9,3.5-5.9,0,0,0-.1.2,0,.7.2,1.4.4,2,.8.2.1.3,0,.4-.1,0-.1.2-.1.3,0,.8.5,1.6.9,2.4,1.4l1.6,1c.2,0,.1.2.1.2,0,.1,0,.2.1.2.2.1.4.2.6.3,0,0,.2,0,.2,0,.1,0,.2,0,.2.1,0,.2,0,.3.1.5.2.3.2.6.3.9,0,.6,0,1.3,0,1.9,0,.7.2,1.8.2,1.8,0,.5.1,1,.1,1.6,0,.2,0,.4,0,.6,0,.2-.1.3,0,.5,0,.2,0,.3-.2.3-.2,0-.3,0-.5.2s-.4.2-.4.4c0,.2-.1.3-.2.4-.3.3-.6.6-.9,1-.7.8-1.5,1.5-2.3,2.3,0,0-.2.1-.3,0-.2-.2-.3-.2-.5,0-.4.4-.9.8-1.4,1.1-.4.2-.4.2-.7-.1,0,0,0,0,0,0-.7-.7-1.4-1.3-2.1-2-.9-.8-1.8-1.7-2.6-2.5,0,0-.2-.2-.3-.2-.3-.1-.4,0-.6.2-.1.2,0,.2.2.4,0,0,.1.2.2.2,1.2,1.4,2.4,2.9,3.7,4.2.3.3.5.7,1,.6.1,0,.2,0,0,.2-.4.5-.3,1.2,0,1.7.3.3.6.4,1,.5.3,0,.5,0,.8-.1.1,0,.2-.3.3-.2.1,0,.2.2.3.3.7.7,1.4,1.4,2.2,2.1.9.8,1.7,1.6,2.6,2.5.1.1.3.2.4.2.2,0,.3-.1.4-.3.1-.1,0-.2,0-.2,0-.1-.2-.2-.3-.3-1.3-1.5-2.5-2.9-3.8-4.4-.3-.3-.5-.5-.9-.5-.2,0-.2,0-.1-.3.3-.6.7-1.1,1.2-1.6.1-.2.2-.3,0-.4-.1-.1,0-.2,0-.3.6-.6,1.2-1.2,1.9-1.9.4-.4,1-.8,1.4-1.3,0,0,.2-.2.4-.1.2,0,.2,0,.3-.1.1-.1.2-.2.3-.3.1-.1.2-.2.1-.4,0-.2,0-.3.2-.2.2,0,.4,0,.6,0,.4,0,.5.1.6.5,0,0,0,.1,0,.2,0,.2.1.3.3.3.2,0,.3-.1.3-.3,0-.3,0-.3.2-.4,0,.3.1.4.5.4.4,0,.9,0,1.3,0,.4,0,.4,0,.5-.5,0,.2.1.3.1.4,0,.2,0,.4.3.4.2,0,.3-.2.3-.5,0,0,0-.1,0-.2,0-.3.1-.4.5-.4.2,0,.4,0,.6,0,.2,0,.3,0,.3.3,0,.2.5.8.7.8,0,0,0,0,0,0,.2,0,.4,0,.5.2.3.3.6.5.8.8.8.8,1.6,1.6,2.4,2.4,0,0,.1.2,0,.2-.2.2-.1.3,0,.5.4.4.8.9,1.1,1.5.2.3.2.3-.2.4-.3,0-.5.2-.7.3-.8.8-1.5,1.6-2.2,2.5-.7.8-1.4,1.6-2,2.4-.1.1-.1.2,0,.4.2.2.3.2.5,0,.1,0,.2-.1.3-.2.9-.9,1.7-1.7,2.6-2.6.8-.7,1.6-1.5,2.3-2.3.1-.1.2,0,.2,0,.2.2.4.3.7.3.3,0,.7,0,.9-.3.3-.2.5-.5.6-.8.1-.4.1-.8-.2-1.2,0,0-.1,0,0-.1,0,0,.1,0,.2,0,.3,0,.5-.1.7-.4.9-1,1.8-2.1,2.8-3.1.5-.6,1-1.1,1.5-1.7,0,0,.1-.1.1-.2,0-.2-.3-.3-.6-.2Z"/>
    <g>
      <g>
        <path class="cls-3" d="M35.6,36.1s0,0,0,0c0,0,0,0,0,0,0-.1-.3-.6-.4-.8,0,0,0-.1-.1-.3,0,0,0-.1,0-.2h0c0,0,0-.1,0-.2,0,0,0,0,0,0,0,0,.2,0,.2-.1,0,0,0,0,.1.2,0,0,0,0,0,0,0,0,0,0,0,.1,0,0,0,0,0,0,0,.2.3,1,.2,1.2Z"/>
        <path class="cls-3" d="M35.2,34.5s0,0,0,0c0,0,0,.1-.2.1s0,0,0,0c0,0,0,0,0,0,0,0,0,0,0-.1,0,0,0-.1,0-.1,0,0,0,0,0,0,0,0,0,0,0,0,0,0,.2,0,.2.1,0,0,0,0,0,0Z"/>
        <path class="cls-3" d="M34.9,34.3s0,0,0,0c0,0,0,0,0,.1s0,0,0,.1c0,0-.1,0-.2,0h0s0,0-.2,0c0,0,0,0,0,0-.2,0-1-.2-1.2-.4,0,0,0,0,0,0,0,0,0,0,0,0,.1,0,.7,0,.9,0,0,0,.2,0,.4,0,0,0,.1,0,.2,0h0c0,0,0,0,.1.1Z"/>
        <path class="cls-3" d="M36.1,33.1s0,0,0,0c0,.1-.3.6-.4.8,0,0,0,.2-.2.3,0,0,0,0-.1.1t0,0c0,0-.1,0-.2,0,0,0,0,0,0,0,0,0,0-.1-.2-.1s0,0,0,0c0,0,0,0,0-.2,0,0,0,0,0,0,0,0,0,0,0-.1,0,0,0,0,0,0,0,0,.6-.8.9-.9,0,0,0,0,0,0Z"/>
        <path class="cls-3" d="M35.3,34.9c0,0,0,0,0-.1,0,0-.1.1-.2.1,0,0-.2,0-.2,0,0,0,0,.1,0,.2,0,0,.2,0,.3,0,0,0,.1,0,.2-.1,0,0,0,0,0,0ZM34.4,34.6s0,0,0,0c0,0,.1,0,.2,0,0,0,0,0,0,0,0,0,0-.1,0-.2,0,0,0,0,0,0,0,0,0,0,0,0,0,0,0,0,0,0,0,0,0,0,0,0,0,0,0,0,0,0s0,0,0,0c0,0,0,0,0,0,0,0,0,0,0,0,0,0,0,0,0,0,0,0,0,0,0,0,0,0,0,0,0,0,0,0,0,0,0,0,0,0,0,0,0,0,0,0,0,0,0,0h0c0,0-.1,0-.2,0-.1.1-.2.3-.1.5ZM35.1,34s0,0,0,0c0,0,0,.1,0,.1,0,0,0,0,0,0,0,0,0,0,0,0,0,0,0,0,0,0,0,0,0,0,0,0,0,0,0,0,0,0,0,0,0,0,0,0,0,0,0,0,0,0,0,0,0,0,0,0,0,0,0,0,0,0,0,0,0,0,0,0,0,0,0,0,0,0,0,0,0,0,0,0h0s0,0,0,0c0,0,0,0,0,0,0,0,0,0,0,0,0,0,0,0,0,0,0,0,0,0,0,0,0,0,0,0,0,0,0,0,0,0,0,0,0,0,0,0,0,0,0,0,0,0,0,0,0,0,0,0,0,0,0,0,0,0,.1-.1,0-.2-.2-.3-.4-.3Z"/>
        <path class="cls-3" d="M34.7,34.2s0,0,0,0c0,0,0,0,0,0,0,0,0,0,0,0,0,0,0,0,0,0,0,0,0,0,0,0,0,0,0,0,0,0,0,0,0,0,0,0,0,0,0,0,0,0,0,0,0,0,0,0s0,0,0,0c0,0,0,0,0,0,0,0,0,0,0,0,0,0,0,0,0,0,0,0,0,0,0,0,0,0,0,0,0,0s0,0,0,.1c.1,0,.2,0,.2,0,0,0,0,0,0-.1,0,0,0-.1,0-.1,0,0,0,0,0,0,0,0,0-.1-.1-.1ZM35.1,34.6c0,0,0,.1-.2.1s0,0,0,0c0,0,0,.1,0,.2,0,0,0,0,.1,0,.1,0,.2,0,.3-.1,0,0,0-.2-.1-.2ZM35.3,34.3s0,0,0,0c0,0,0,0,0,0,0,0,0,0,0,0,0,0,0,0,0,0,0,0,0,0,0,0,0,0,0,0,0,0,0,0,0,0,0,0,0,0,0,0,0,0h0s0,0,0,0c0,0,0,0,0,0,0,0,0,0,0,0,0,0,0,0,0,0,0,0,0,0,0,0,0,0,0,0,0,0,0,0,0,0,0,0,0,0,0,0,0,0,0,0,0,0,0,0,0,0,0,0,0,0,0,0,0,0,0,0,0,0,0,0,0,0,0,.1,0,.2,0,.2,0,0,0,0,0,0,0,0,.2,0,.2.1,0,0,0,0,0,0,0,0,.1,0,.2,0,0,0,0,0,0,0Z"/>
      </g>
      <path class="cls-3" d="M37.8,34.8h-1.8v2.1s0,.6-.7.6-.7-.2-.7-.6v-1.5l-.7-.6v2.2s0,1.3,1.4,1.3c0,0,.6,0,1-.3l.4.3v-1.4h1c1,0,1-1.1,1-1.1,0-1-.9-1-.9-1ZM37.8,36.2h-1.1v-.7h1.1c.1,0,.3.1.3.3,0,.3-.3.3-.3.3Z"/>
    </g>
  </g>
</svg>