<?xml version="1.0" encoding="UTF-8"?>
<svg id="Layer_1" data-name="Layer 1" xmlns="http://www.w3.org/2000/svg" version="1.1" xmlns:xlink="http://www.w3.org/1999/xlink" viewBox="0 0 72 72">
  <defs>
    <style>
      .cls-1 {
        isolation: isolate;
      }

      .cls-2 {
        fill: none;
      }

      .cls-2, .cls-3 {
        stroke-width: 0px;
      }

      .cls-3, .cls-4 {
        fill: #e63343;
      }

      .cls-5 {
        clip-path: url(#clippath-1);
      }

      .cls-4, .cls-6 {
        stroke: #000;
        stroke-miterlimit: 10;
        stroke-width: .5px;
      }

      .cls-7 {
        clip-path: url(#clippath);
      }

      .cls-6 {
        fill: #c8283e;
      }
    </style>
    <clipPath id="clippath">
      <rect class="cls-2" x="22.6" y="-4.6" width="13.4" height="80"/>
    </clipPath>
    <clipPath id="clippath-1">
      <rect class="cls-2" x="36" y="-4.6" width="13.4" height="80"/>
    </clipPath>
  </defs>
  <image class="cls-1" width="512" height="512" transform="translate(-78 4.6) scale(.1)" xlink:href="C:\Users\intern2\Desktop\Street_view-512.webp"/>
  <ellipse class="cls-6" cx="36" cy="61.9" rx="24.2" ry="8.3"/>
  <g>
    <g id="_Ripetizione_specchio_" data-name=" Ripetizione specchio ">
      <g class="cls-7">
        <g>
          <polyline class="cls-3" points="36 -4.6 36 22.8 36 75.4"/>
          <path class="cls-4" d="M36,22.8h-6.3c-.9,0-1.8.1-2.6.4h0c-1.6.5-2.9,1.7-3.5,3.3l-.2.5c-.4,1.2-.6,2.5-.6,3.8v10.1c0,.5.1.9.4,1.3h0c.4.5.9.8,1.6.8h1c.6,0,1.1.4,1.3,1l3.8,16.6c.1.5.4.8.8,1h0c.2,0,.5.2.8.2h3.5"/>
          <circle class="cls-4" cx="35.9" cy="9.5" r="7.3"/>
        </g>
      </g>
    </g>
    <g id="_Ripetizione_specchio_-2" data-name=" Ripetizione specchio -2">
      <g class="cls-5">
        <g>
          <polyline class="cls-3" points="36 -4.6 36 22.8 36 75.4"/>
          <path class="cls-4" d="M36,22.8h6.4c.8,0,1.6.1,2.4.3h.2c1.7.5,3.1,1.8,3.6,3.5h0c.4,1.2.6,2.4.6,3.6v10.6c0,.5,0,.9-.4,1.3h0c-.4.5-.9.8-1.6.8h-1c-.6,0-1.1.4-1.3,1l-3.8,16.6c0,.5-.4.8-.8,1h0c-.2,0-.5.2-.8.2h-3.5"/>
          <circle class="cls-4" cx="36.1" cy="9.5" r="7.3"/>
        </g>
      </g>
    </g>
  </g>
</svg>