<?xml version="1.0" encoding="UTF-8"?>
<svg id="Layer_1" data-name="Layer 1" xmlns="http://www.w3.org/2000/svg" version="1.1" viewBox="0 0 72 72">
  <defs>
    <style>
      .cls-1 {
        fill: #e63343;
      }

      .cls-1, .cls-2, .cls-3, .cls-4 {
        stroke-width: 0px;
      }

      .cls-5 {
        opacity: .4;
      }

      .cls-2 {
        fill: #e6ffff;
      }

      .cls-3 {
        fill: #c81a33;
      }

      .cls-4 {
        fill: #fff;
      }
    </style>
  </defs>
  <path class="cls-3" d="M50.7,61.8c0,2.1-6.6,3.9-14.7,3.9s-14.7-1.7-14.7-3.9,2.8-2.6,7-3.3c.6,0,1.3-.2,2-.3l.5,2.4c0,.5.4.8.8,1,.2,0,.4.2.8.2h7c.4,0,.6-.1.8-.2.4-.2.7-.5.8-1l.5-2.4c.7,0,1.4.2,2,.3,4.2.7,7,1.9,7,3.3Z"/>
  <circle class="cls-1" cx="36.1" cy="9.5" r="7.3"/>
  <g class="cls-5">
    <path class="cls-2" d="M36.1,2.2c4,0,7.3,3.3,7.3,7.3s-3.3,7.3-7.3,7.3-7.3-3.3-7.3-7.3,3.3-7.3,7.3-7.3h0ZM36.1.2c-5.1,0-9.3,4.2-9.3,9.3s4.2,9.3,9.3,9.3,9.3-4.2,9.3-9.3S41.2.2,36.1.2h0Z"/>
  </g>
  <g class="cls-5">
    <path class="cls-4" d="M44.1,56.5l.5-2.2,2.1-9.4h.5c.9,0,2.1-.3,3.2-1.5h0s0,0,0,0c.5-.7.8-1.5.8-2.5v-10.1c0-1.5-.2-3-.7-4.4h0c0,0,0-.1,0-.1l-.2-.5c-.8-2.1-2.5-3.8-4.7-4.5-.9-.3-2-.5-3.2-.5h-12.6c-1.2,0-2.3.2-3.2.5-2.2.7-3.9,2.3-4.7,4.5l-.2.5h0s0,.1,0,.1c-.5,1.4-.7,2.9-.7,4.4v10.1c0,1,.3,1.8.8,2.5h0s0,0,0,0c1,1.3,2.3,1.5,3.2,1.5h.5l2.1,9.4.5,2.2c-4.3.7-8.6,2.2-8.6,5.3,0,5.6,13.9,5.9,16.7,5.9s16.7-.3,16.7-5.9-4.3-4.6-8.6-5.3ZM36,65.7c-8.1,0-14.7-1.7-14.7-3.9s2.8-2.6,7-3.3c.6,0,1.3-.2,2-.3l-.5-2-.5-2.3-2.3-9.9c-.2-.6-.7-1-1.3-1h-1c-.7,0-1.2-.3-1.6-.8-.3-.4-.4-.8-.4-1.3v-10.1c0-1.3.2-2.6.6-3.8l.2-.5c.6-1.6,1.9-2.8,3.5-3.3.8-.3,1.7-.4,2.6-.4h12.6c.9,0,1.8.1,2.6.4,1.6.5,2.9,1.7,3.5,3.3l.2.5c.4,1.2.6,2.5.6,3.8v10.1c0,.5-.1.9-.4,1.3-.4.5-.9.8-1.6.8h-1c-.6,0-1.1.4-1.3,1l-2.3,9.9-.5,2.3-.5,2c.7,0,1.4.2,2,.3,4.2.7,7,1.9,7,3.3,0,2.1-6.6,3.9-14.7,3.9Z"/>
  </g>
  <path class="cls-1" d="M49.2,30.8v10.1c0,.5-.1.9-.4,1.3-.4.5-.9.8-1.6.8h-1c-.6,0-1.1.4-1.3,1l-2.3,9.9-.5,2.3-.5,2-.5,2.4c0,.5-.4.8-.8,1-.2,0-.4.2-.8.2h-7c-.4,0-.6-.1-.8-.2-.4-.2-.7-.5-.8-1l-.5-2.4-.5-2-.5-2.3-2.3-9.9c-.2-.6-.7-1-1.3-1h-1c-.7,0-1.2-.3-1.6-.8-.3-.4-.4-.8-.4-1.3v-10.1c0-1.3.2-2.6.6-3.8l.2-.5c.6-1.6,1.9-2.8,3.5-3.3.8-.3,1.7-.4,2.6-.4h12.6c.9,0,1.8.1,2.6.4,1.6.5,2.9,1.7,3.5,3.3l.2.5c.4,1.2.6,2.5.6,3.8Z"/>
</svg>