<?xml version="1.0" encoding="UTF-8"?>
<svg xmlns="http://www.w3.org/2000/svg" xmlns:xlink="http://www.w3.org/1999/xlink" version="1.1" viewBox="0 0 311.8 297.6">
  <defs>
    <style>
      .cls-1 {
        fill: url(#Sfumatura_senza_nome_26);
      }

      .cls-2 {
        fill: url(#Sfumatura_senza_nome_10);
      }
    </style>
    <linearGradient id="Sfumatura_senza_nome_26" data-name="Sfumatura senza nome 26" x1="25" y1="348.7" x2="183.2" y2="25.5" gradientUnits="userSpaceOnUse">
      <stop offset="0" stop-color="#fff"/>
      <stop offset=".4" stop-color="#d3d3d3"/>
      <stop offset="1" stop-color="#1d1d1b"/>
    </linearGradient>
    <linearGradient id="Sfumatura_senza_nome_10" data-name="Sfumatura senza nome 10" x1="299.7" y1="0" x2="126.9" y2="236.6" gradientUnits="userSpaceOnUse">
      <stop offset=".2" stop-color="#83d0f5"/>
      <stop offset=".9" stop-color="#004f9f"/>
    </linearGradient>
  </defs>
  <!-- Generator: Adobe Illustrator 28.6.0, SVG Export Plug-In . SVG Version: 1.2.0 Build 709)  -->
  <g>
    <g id="Livello_1">
      <g>
        <path class="cls-1" d="M150.9,86.9c-18.3,19.1-39,44.7-44.9,71.8-7.7,45.2,1,106.7,43,128.3-122-2.5-167.3-39.4-119.6-138.1,14-31.2,29-60.9,56.3-94.5,21.6-14,52.8,17.7,66,31.7-.3.3-.5.5-.8.8Z"/>
        <path class="cls-2" d="M291.1,248.6c-18,23.7-58.6,36.6-120.6,38.3-45.8-3.7-62.1-59.6-61.2-102.1,20.9,47.2,96.9,33.7,97.2-18.9,1.9-32.9-74.2-127.4-113.1-120.3,60.5-68.8,111-24.6,150.4,32.4,29.8,50.7,78,125.1,47.3,170.6Z"/>
      </g>
    </g>
  </g>
</svg>