<?xml version="1.0" encoding="UTF-8"?>
<svg id="Livello_2" data-name="Livello 2" xmlns="http://www.w3.org/2000/svg" viewBox="0 0 41.16 62.14">
  <defs>
    <style>
      .cls-1 {
        opacity: .85;
      }

      .cls-2 {
        fill: #e63343;
      }

      .cls-2, .cls-3 {
        stroke-width: 0px;
      }

      .cls-3 {
        fill: #fff;
      }
    </style>
  </defs>
  <g id="Livello_7" data-name="Livello 7">
    <g>
      <g class="cls-1">
        <path class="cls-3" d="M20.59,1.4c12.75,0,19.74,10.37,19.13,20.92-.79,13.6-17.62,38.42-19.13,38.42-1.41,0-18.18-26.1-19.13-38.42C.65,11.79,7.84,1.4,20.59,1.4M20.59,0c-6.06,0-11.28,2.18-15.1,6.3C1.58,10.53-.4,16.4.07,22.43c.56,7.29,6.23,18.42,9.56,24.4,2.09,3.76,4.35,7.46,6.35,10.42,3.31,4.89,3.91,4.89,4.61,4.89.66,0,1.33,0,4.65-4.68,2.04-2.88,4.32-6.48,6.39-10.14,3.34-5.87,9.01-16.92,9.48-24.92.36-6.15-1.7-12.09-5.66-16.28C31.68,2.12,26.54,0,20.59,0h0Z"/>
      </g>
      <path class="cls-2" d="M39.72,22.32c-.79,13.6-17.62,38.42-19.13,38.42-1.41,0-18.18-26.1-19.13-38.42C.65,11.79,7.84,1.4,20.59,1.4s19.74,10.37,19.13,20.92Z"/>
    </g>
  </g>
</svg>